<?xml version="1.0" encoding="UTF-8" standalone="no"?>
<!-- Created with Inkscape (http://www.inkscape.org/) -->

<svg
   xmlns:dc="http://purl.org/dc/elements/1.1/"
   xmlns:cc="http://creativecommons.org/ns#"
   xmlns:rdf="http://www.w3.org/1999/02/22-rdf-syntax-ns#"
   xmlns:svg="http://www.w3.org/2000/svg"
   xmlns="http://www.w3.org/2000/svg"
   xmlns:sodipodi="http://sodipodi.sourceforge.net/DTD/sodipodi-0.dtd"
   xmlns:inkscape="http://www.inkscape.org/namespaces/inkscape"
   width="505.89862"
   height="119.72699"
   id="svg2"
   version="1.1"
   inkscape:version="0.47 r22583"
   sodipodi:docname="omegaup_curves.svg"
   inkscape:export-filename="/home/lhchavez/code/omegaup/frontend/omegaup_curves.png"
   inkscape:export-xdpi="66.150497"
   inkscape:export-ydpi="66.150497">
  <defs
     id="defs4" />
  <sodipodi:namedview
     id="base"
     pagecolor="#ffffff"
     bordercolor="#666666"
     borderopacity="1.0"
     inkscape:pageopacity="0.0"
     inkscape:pageshadow="2"
     inkscape:zoom="0.84908635"
     inkscape:cx="205.51172"
     inkscape:cy="-11.604572"
     inkscape:document-units="px"
     inkscape:current-layer="layer1"
     showgrid="false"
     inkscape:window-width="1024"
     inkscape:window-height="527"
     inkscape:window-x="0"
     inkscape:window-y="24"
     inkscape:window-maximized="1" />
  <metadata
     id="metadata7">
    <rdf:RDF>
      <cc:Work
         rdf:about="">
        <dc:format>image/svg+xml</dc:format>
        <dc:type
           rdf:resource="http://purl.org/dc/dcmitype/StillImage" />
        <dc:title></dc:title>
      </cc:Work>
    </rdf:RDF>
  </metadata>
  <g
     inkscape:label="Layer 1"
     inkscape:groupmode="layer"
     id="layer1"
     transform="translate(-1.5300006,-318.74925)">
    <path
       id="path3717"
       style="font-size:144.59780883999999901px;font-style:normal;font-weight:normal;fill:#111111;fill-opacity:1;stroke:none;font-family:Bitstream Vera Sans"
       d="m 33.341518,412.01484 c 21.978845,0 31.811518,-20.8221 31.811518,-37.59543 0,-16.77333 -9.832673,-37.59543 -31.811518,-37.59543 -21.978845,0 -31.8115174,20.8221 -31.8115174,37.59543 0,16.77333 9.8326724,37.59543 31.8115174,37.59543 m 0,-57.69453 c 6.796091,0 10.844836,7.5191 10.844836,20.0991 0,12.4354 -4.048745,20.24369 -10.844836,20.24369 -6.79609,0 -10.844835,-7.6637 -10.844835,-20.24369 0,-12.58 4.048745,-20.0991 10.844835,-20.0991" />
    <path
       id="path3719"
       style="font-size:144.59780883999999901px;font-style:normal;font-weight:normal;fill:#111111;fill-opacity:1;stroke:none;font-family:Bitstream Vera Sans"
       d="m 145.52594,409.84587 20.96668,0 0,-51.62142 c 0,-11.56781 -5.35014,-21.40047 -23.42485,-21.40047 -7.08528,0 -18.07472,7.37448 -18.07472,7.37448 0,0 -4.04875,-7.37448 -16.62875,-7.37448 -5.20552,0 -12.72461,4.33793 -16.628747,7.37448 l 0,-5.35011 -20.966683,0 0,70.99752 20.966683,0 0,-49.88624 c 2.747355,-2.02437 5.783917,-5.78392 13.013807,-5.78392 2.31356,0 3.47034,1.15679 3.47034,5.92851 l 0,49.74165 20.96669,0 0,-51.04303 c 0,0 5.63932,-4.77172 12.7246,-4.77172 2.74736,0 3.61495,1.87977 3.61495,5.63931 l 0,50.17544" />
    <path
       id="path3721"
       style="font-size:144.59780883999999901px;font-style:normal;font-weight:normal;fill:#111111;fill-opacity:1;stroke:none;font-family:Bitstream Vera Sans"
       d="m 233.88108,376.29918 c 0,-3.90414 -0.14459,-7.66369 -0.28919,-11.56783 -0.43379,-15.18275 -12.86922,-27.90737 -28.19657,-27.90737 -20.09908,0 -33.83589,16.62876 -33.83589,36.00485 0,19.37609 8.96509,39.3306 31.23313,39.3306 8.82045,0 19.8099,-4.77173 26.75059,-10.55564 l -6.07311,-13.0138 c -5.35011,3.90414 -13.4476,6.21771 -19.9545,6.21771 -8.24206,0 -10.98943,-9.54346 -10.98943,-16.19496 0,-0.72299 0,-1.59057 0.1446,-2.31356 l 41.21037,0 m -19.6653,-13.303 -20.09909,0 c 0.57839,-5.06092 4.33794,-12.29081 10.26644,-12.29081 6.5069,0 9.68806,6.6515 9.83265,12.29081" />
    <path
       id="path3723"
       style="font-size:144.59780883999999901px;font-style:normal;font-weight:normal;fill:#111111;fill-opacity:1;stroke:none;font-family:Bitstream Vera Sans"
       d="m 291.1856,352.44054 6.7961,1.73517 0,-15.18277 -17.78553,0 c -4.04874,-1.59057 -8.38668,-2.16896 -12.43541,-2.16896 -16.91793,0 -28.48577,10.70025 -28.48577,26.89519 0,6.79609 5.06093,16.19496 12.14621,19.6653 -3.61494,2.02437 -9.68805,6.21771 -9.68805,11.27863 0,4.62712 4.19334,8.53127 8.09748,9.68805 -5.35012,1.87977 -12.43541,7.80829 -12.43541,14.02599 0,15.61655 15.61657,20.0991 27.47358,20.0991 15.90574,0 34.12508,-9.25428 34.12508,-27.61819 0,-11.857 -9.39886,-16.05035 -20.09909,-16.05035 l -4.62713,0 c -2.89196,0 -11.85702,0.57839 -11.85702,-2.45817 0,-4.33793 8.24208,-4.77172 11.27863,-5.35011 11.27861,-2.16897 20.38829,-10.55566 20.38829,-22.99106 0,-6.50689 -2.89196,-11.56782 -2.89196,-11.56782 m -19.6653,56.97154 c 2.74736,0 7.95288,-0.43379 7.95288,2.45816 0,6.3623 -6.50691,10.70024 -14.02599,10.70024 -4.77172,0 -7.95288,-1.44599 -7.95288,-6.21771 0,-3.03655 6.36231,-6.94069 6.36231,-6.94069 l 7.66368,0 m -4.62713,-56.68235 c 5.63931,0 6.94069,5.63932 6.94069,10.26645 0,3.90414 -1.15678,9.68805 -6.65149,9.68805 -6.2177,0 -7.22989,-5.20552 -7.22989,-10.41104 0,-4.62712 1.30138,-9.54346 6.94069,-9.54346" />
    <path
       id="path3725"
       style="font-size:144.59780883999999901px;font-style:normal;font-weight:normal;fill:#111111;fill-opacity:1;stroke:none;font-family:Bitstream Vera Sans"
       d="m 362.16539,408.97828 -3.18115,-9.83265 c -0.57839,0.2892 -1.30138,0.57839 -2.02437,0.57839 -1.73518,0 -1.73518,-2.45816 -1.73518,-3.75954 l 0,-37.74003 c 0,-15.03816 -11.56784,-21.40047 -25.30461,-21.40047 -9.54345,0 -20.09911,5.06093 -26.8952,11.56782 l 7.37449,11.85702 c 5.20552,-4.04873 10.84484,-6.6515 17.49634,-6.6515 3.32574,0 7.80828,1.87978 7.80828,5.78391 l 0,3.03656 -31.81152,12.72461 c -2.45816,4.48252 -5.20552,10.26644 -5.20552,15.32736 0,14.45977 7.95289,21.54508 22.12346,21.54508 7.22989,0 15.03818,-4.33794 17.64094,-11.42323 0.86758,6.50689 5.06093,11.42323 12.58001,11.42323 3.90413,0 7.66368,-1.30139 11.13403,-3.03656 m -26.02761,-32.8237 0,3.90414 c 0,7.51908 -3.75955,15.18277 -12.14621,15.18277 -2.89196,0 -5.63932,-2.02437 -5.63932,-5.06092 0,-2.31357 0.57839,-5.06093 1.30138,-7.22989 l 16.48415,-6.7961" />
    <path
       id="path3727"
       style="font-size:144.59780884px;font-style:normal;font-variant:normal;font-weight:bold;font-stretch:normal;fill:#5588dd;fill-opacity:1;stroke:none;font-family:Delicious Heavy;-inkscape-font-specification:'Delicious Heavy, Medium'"
       d="m 436.60389,373.55182 0,-54.80257 -21.54508,0 0,54.80257 c 0,13.88138 -3.32576,19.9545 -11.13403,19.9545 -7.80827,0 -11.13403,-6.07312 -11.13403,-19.9545 l 0,-54.80257 -21.54507,0 0,54.80257 c 0,18.21931 7.6637,38.46302 32.6791,38.46302 25.0154,0 32.67911,-20.24371 32.67911,-38.46302" />
    <path
       id="path3729"
       style="font-size:144.59780884px;font-style:normal;font-variant:normal;font-weight:bold;font-stretch:normal;fill:#5588dd;fill-opacity:1;stroke:none;font-family:Delicious Heavy;-inkscape-font-specification:'Delicious Heavy, Medium'"
       d="m 477.35226,412.01484 c 25.0154,0 30.07635,-23.85866 30.07635,-40.0536 0,-15.03815 -8.2421,-35.13726 -27.03979,-35.13726 -7.80828,0 -15.03818,7.37448 -15.03818,7.37448 l 0.1446,-5.20552 -21.11128,0 0,96.15755 21.11128,0 0,-28.19658 c 0,0 5.06093,5.06093 11.85702,5.06093 m -0.57839,-57.83913 c 9.10965,0 9.25426,12.58002 9.25426,18.94232 0,6.2177 0.28919,21.97886 -9.25426,21.97886 -10.41103,0 -11.27863,-11.42323 -11.27863,-19.5207 l 0,-15.47197 c 3.18115,-2.74735 5.35013,-5.92851 11.27863,-5.92851" />
  </g>
</svg>
