<?xml version="1.0" encoding="UTF-8"?>
<svg version="1.1" xmlns="http://www.w3.org/2000/svg" width="480" height="320" viewBox="-50 -115 750 375" preserveAspectRatio="xMidYMid meet">
<path d="M0 0 C3.4149777 1.45411954 6.39219494 3.09479662 9.484375 5.15625 C12.33545751 4.04053344 12.33545751 4.04053344 15.421875 2.28125 C23.35108475 -1.57739662 30.46172822 -2.3812411 38.921875 0.34375 C44.36310303 3.11209409 47.7613809 6.71026179 50.484375 12.15625 C51.39311279 15.80652367 51.60622522 19.20179959 51.59790039 22.95629883 C51.59778709 24.66750664 51.59778709 24.66750664 51.59767151 26.4132843 C51.59251022 27.63428329 51.58734894 28.85528229 51.58203125 30.11328125 C51.5806163 31.37138107 51.57920135 32.6294809 51.57774353 33.92570496 C51.57310073 37.25803529 51.56412728 40.59029632 51.55303955 43.92260742 C51.54278003 47.32795617 51.53823621 50.7333121 51.53320312 54.13867188 C51.52218329 60.81121945 51.50492335 67.48372524 51.484375 74.15625 C43.894375 74.15625 36.304375 74.15625 28.484375 74.15625 C28.154375 56.00625 27.824375 37.85625 27.484375 19.15625 C20.4098394 18.63450081 20.4098394 18.63450081 14.484375 22.15625 C14.154375 39.31625 13.824375 56.47625 13.484375 74.15625 C5.894375 74.15625 -1.695625 74.15625 -9.515625 74.15625 C-9.845625 56.00625 -10.175625 37.85625 -10.515625 19.15625 C-17.52621532 19.15625 -18.37910233 19.3337215 -23.515625 23.15625 C-24.175625 23.15625 -24.835625 23.15625 -25.515625 23.15625 C-25.515625 39.98625 -25.515625 56.81625 -25.515625 74.15625 C-32.775625 74.15625 -40.035625 74.15625 -47.515625 74.15625 C-47.515625 50.06625 -47.515625 25.97625 -47.515625 1.15625 C-40.255625 1.15625 -32.995625 1.15625 -25.515625 1.15625 C-25.185625 2.47625 -24.855625 3.79625 -24.515625 5.15625 C-23.39027344 4.5065625 -23.39027344 4.5065625 -22.2421875 3.84375 C-14.60187133 -0.31319784 -8.52038561 -2.85776909 0 0 Z " fill="#111111" transform="translate(214.515625,22.84375)"/>
<path d="M0 0 C1.62567079 0.14715199 3.25586857 0.24721867 4.88671875 0.31640625 C5.82451172 0.35830078 6.76230469 0.40019531 7.72851562 0.44335938 C8.70498047 0.48267578 9.68144531 0.52199219 10.6875 0.5625 C12.16959961 0.62727539 12.16959961 0.62727539 13.68164062 0.69335938 C16.12092972 0.79941542 18.56044654 0.90020974 21 1 C21 6.61 21 12.22 21 18 C19.35 17.67 17.7 17.34 16 17 C16.2475 18.2065625 16.2475 18.2065625 16.5 19.4375 C17.62967778 27.48645421 17.57101221 33.98343224 13 41 C5.20439717 49.72566391 -3.94268688 51.65551707 -15 54 C-15 54.99 -15 55.98 -15 57 C-14.11646851 57.02187378 -14.11646851 57.02187378 -13.21508789 57.04418945 C-10.49696198 57.11953764 -7.77995058 57.21590384 -5.0625 57.3125 C-3.67321289 57.34633789 -3.67321289 57.34633789 -2.25585938 57.38085938 C5.21836735 57.6693383 11.99579373 58.57106727 17.9375 63.375 C21.72401852 68.19420539 22.50100678 71.88771729 22 78 C20.65431865 85.48688167 17.95176231 91.14078147 12 96 C3.4340483 101.14629821 -3.36096709 103.18910746 -13.1875 103.25 C-14.00025391 103.270625 -14.81300781 103.29125 -15.65039062 103.3125 C-23.97742932 103.36549627 -31.37655228 101.55987157 -37.5546875 95.7265625 C-41.19414529 91.3788859 -42.30061671 86.91753225 -41.9375 81.3125 C-40.91432486 74.90940398 -37.02039522 71.76529641 -32 68 C-32.825 67.360625 -33.65 66.72125 -34.5 66.0625 C-37.42101439 62.48425737 -37.79936829 60.72047549 -37.56640625 56.2265625 C-36.54509041 52.21173471 -34.2152433 50.50788978 -31 48 C-30.34 48 -29.68 48 -29 48 C-29.45890625 47.53851563 -29.9178125 47.07703125 -30.390625 46.6015625 C-36.17977178 40.44755353 -40.08124509 33.99933763 -40.4375 25.375 C-40.08536644 18.49018173 -37.37016614 12.29020111 -33 7 C-23.74760274 -0.50971273 -11.67546932 -3.89182311 0 0 Z M-17 19 C-18.63547495 23.90642484 -18.57522753 27.68177024 -16.5 32.4375 C-16.005 33.283125 -15.51 34.12875 -15 35 C-11.62599422 35.41725678 -11.62599422 35.41725678 -8 35 C-5.15285598 32.15285598 -4.76989451 29.38216595 -4.5625 25.5 C-4.67963106 22.15897605 -5.02886305 20.94948966 -6.75 17.9375 C-10.67697079 14.55594182 -13.55011563 15.78803869 -17 19 Z M-17.9921875 76.31640625 C-20.33529494 78.87530115 -20.33529494 78.87530115 -19.9375 82.25 C-19.31285945 85.13618706 -19.31285945 85.13618706 -17 86 C-10.4949144 86.80816746 -6.27890566 85.87837967 -1 82 C0.60509877 80.12935233 0.60509877 80.12935233 1 78 C0.70394775 76.65789645 0.3746564 75.32231671 0 74 C-2.39774745 73.86427845 -4.78775245 73.76563132 -7.1875 73.6875 C-7.86103516 73.64560547 -8.53457031 73.60371094 -9.22851562 73.56054688 C-13.17849914 73.46420581 -14.83398727 73.871481 -17.9921875 76.31640625 Z " fill="#111111" transform="translate(379,23)"/>
<path d="M0 0 C7.59 0 15.18 0 23 0 C23.01458252 1.96267822 23.02916504 3.92535645 23.04418945 5.94750977 C23.09594319 12.44959861 23.16125653 18.95144206 23.23571491 25.45330906 C23.28034426 29.39341224 23.31961638 33.33341379 23.34643555 37.27368164 C23.37254327 41.07994894 23.41299744 44.8858236 23.46318626 48.69184685 C23.47980474 50.14016759 23.49135018 51.58855616 23.49761391 53.03695869 C23.36787648 63.44924517 23.36787648 63.44924517 27 73 C29.90822874 74.88641864 31.60744494 75.00801133 35.0625 74.9375 C38.79412339 73.74655637 39.93857215 72.28301473 42 69 C43.1591085 65.54466948 43.15614144 62.2044313 43.20532227 58.57910156 C43.22526749 57.27805481 43.24521271 55.97700806 43.26576233 54.63653564 C43.28274418 53.2212333 43.29962307 51.80592972 43.31640625 50.390625 C43.33698755 48.93902001 43.35798433 47.48742086 43.37937927 46.03582764 C43.43447851 42.22187028 43.48394115 38.40785993 43.53222656 34.59381104 C43.58253049 30.69921166 43.63817007 26.80468891 43.69335938 22.91015625 C43.8007923 15.27350067 43.90177673 7.6367806 44 0 C51.59 0 59.18 0 67 0 C67.06814042 8.26770445 67.12302426 16.53518565 67.15543652 24.80309677 C67.17100327 28.64341528 67.192074 32.48352949 67.22631836 36.32373047 C67.25923673 40.03905456 67.27692036 43.75418382 67.28463173 47.46964264 C67.29011765 48.87762768 67.30082777 50.28560369 67.31719017 51.69350433 C67.47133175 65.52358248 66.06157125 77.37071246 56.3359375 87.78125 C49.72661874 93.9378757 41.9177956 96 33 96 C23.13771739 95.1845141 15.67547714 93.09328224 8.75 85.875 C2.22053027 78.10121089 -0.13266568 69.3841513 -0.11352539 59.3737793 C-0.11367142 58.72931351 -0.11381744 58.08484772 -0.1139679 57.42085266 C-0.11327506 55.30527296 -0.10551231 53.18978294 -0.09765625 51.07421875 C-0.09578983 49.60162911 -0.09436699 48.12903885 -0.09336853 46.65644836 C-0.08956096 42.79147612 -0.07974579 38.9265418 -0.06866455 35.06158447 C-0.0584125 31.11332716 -0.05386279 27.16506368 -0.04882812 23.21679688 C-0.03812187 15.47784534 -0.02053941 7.73893283 0 0 Z " fill="#5588DD" transform="translate(474,4)"/>
<path d="M0 0 C7.57899975 3.35927672 12.26116454 9.31920571 15.375 16.875 C19.82615632 29.27037254 19.88397613 45.32284743 14.9375 57.5625 C14.31875 59.1403125 14.31875 59.1403125 13.6875 60.75 C8.54596959 69.01317387 3.19908659 73.753385 -6.3203125 76.125 C-12.8505747 77.21716929 -18.22878922 75.47935539 -24.0625 72.5625 C-24.0625 81.4725 -24.0625 90.3825 -24.0625 99.5625 C-31.6525 99.5625 -39.2425 99.5625 -47.0625 99.5625 C-47.0625 66.8925 -47.0625 34.2225 -47.0625 0.5625 C-39.4725 0.5625 -31.8825 0.5625 -24.0625 0.5625 C-23.7325 1.5525 -23.4025 2.5425 -23.0625 3.5625 C-22.51722656 3.2015625 -21.97195313 2.840625 -21.41015625 2.46875 C-13.88777346 -2.16040864 -8.38314212 -2.76874419 0 0 Z M-24.0625 22.5625 C-24.37359824 24.98621508 -24.37359824 24.98621508 -24.328125 27.796875 C-24.33070313 28.84617187 -24.33328125 29.89546875 -24.3359375 30.9765625 C-24.32820312 32.07742187 -24.32046875 33.17828125 -24.3125 34.3125 C-24.32023438 35.39789063 -24.32796875 36.48328125 -24.3359375 37.6015625 C-24.3191468 44.46895751 -24.16446414 49.79991856 -19.875 55.4375 C-17.16019696 57.82437841 -17.16019696 57.82437841 -13.5 58.1875 C-10.02662798 57.84047882 -10.02662798 57.84047882 -7.75 55.6875 C-2.66552864 46.27181229 -2.69658678 33.60297024 -5.37890625 23.41015625 C-6.43275159 20.56176286 -7.47717184 19.16959589 -10.0625 17.5625 C-16.21231122 16.77979675 -19.74967744 18.24967744 -24.0625 22.5625 Z " fill="#5588DD" transform="translate(595.0625,23.4375)"/>
<path d="M0 0 C4.50389546 3.80890558 7.58285791 8.42649804 8.2784729 14.38557434 C8.29179657 15.20942123 8.30512024 16.03326813 8.31884766 16.88208008 C8.33871735 17.82267776 8.35858704 18.76327545 8.37905884 19.7323761 C8.39061005 20.7346373 8.40216125 21.7368985 8.4140625 22.76953125 C8.43342865 23.80567062 8.4527948 24.84181 8.4727478 25.90934753 C8.53240357 29.21031529 8.57887331 32.51131819 8.625 35.8125 C8.66319263 38.05405145 8.70224511 40.29558842 8.7421875 42.53710938 C8.83809358 48.02461086 8.92318199 53.51219991 9 59 C9.99 59 10.98 59 12 59 C12.50833591 60.24663331 13.00631145 61.49749387 13.5 62.75 C13.7784375 63.44609375 14.056875 64.1421875 14.34375 64.859375 C15 67 15 67 15 71 C9.77792633 73.37366985 5.15192506 74.30202457 -0.5625 73.5 C-4.99437348 71.56609157 -7.19406123 68.84403334 -10 65 C-10.886875 65.94875 -11.77375 66.8975 -12.6875 67.875 C-17.21144483 72.36723494 -21.65324909 73.5905322 -28 74 C-34.4856967 73.40524179 -39.98216468 72.40590418 -45 68 C-50.57346529 60.61892434 -50.80124465 54.03572275 -50 45 C-48.80777372 40.15458837 -47.09754698 36.45487751 -42.921875 33.55859375 C-40.0021127 32.16757492 -37.04535636 31.09328954 -34 30 C-31.35593192 28.94960961 -28.72047923 27.87892594 -26.08422852 26.80908203 C-22.06532002 25.18282768 -18.03328372 23.59019842 -14 22 C-14 20.35 -14 18.7 -14 17 C-17.69610231 14.63449452 -20.67980593 14.57506288 -25 15 C-27.34077938 15.8511925 -29.55068146 16.83877977 -31.7890625 17.9296875 C-34.15231224 19.0737342 -36.5541269 20.04739679 -39 21 C-40.17192047 19.04480616 -41.3373929 17.0857461 -42.5 15.125 C-43.1496875 14.03445312 -43.799375 12.94390625 -44.46875 11.8203125 C-46 9 -46 9 -46 7 C-33.10545001 -3.6692494 -15.33270726 -8.47138269 0 0 Z M-19.9375 39.8125 C-20.58396484 40.07353516 -21.23042969 40.33457031 -21.89648438 40.60351562 C-25.36020374 42.06022003 -26.86444233 42.7966635 -29 46 C-29.33338596 49.54187831 -29.33338596 49.54187831 -29 53 C-27.07553704 55.33984763 -27.07553704 55.33984763 -23.6875 55.375 C-19.27392218 54.92616158 -17.91715247 54.32231253 -15 51 C-12.90883226 46.49853049 -11.51552208 42.00627182 -12 37 C-14.62574464 37 -17.50764245 38.79383821 -19.9375 39.8125 Z " fill="#111111" transform="translate(450,26)"/>
<path d="M0 0 C7.62926604 5.86354071 12.53381507 15.34531358 14.0390625 24.75 C15.07091744 37.64181733 14.36952237 50.68055784 5.671875 61.0390625 C-0.69497839 67.71055002 -7.06009062 71.98994497 -16.50390625 72.74609375 C-25.97632047 72.76115323 -33.2294324 70.22105528 -40.08984375 63.73828125 C-50.09082244 53.1847623 -51.45471391 42.48261837 -51.23828125 28.5 C-50.84204652 18.4699387 -46.39030938 8.89776545 -39.078125 1.96484375 C-27.33203018 -7.40900055 -12.76283087 -8.13566908 0 0 Z M-25.9609375 17.75 C-30.12517916 25.29872492 -30.12439231 34.9778211 -28.45703125 43.25 C-26.96808196 47.7423727 -24.8225017 51.0293525 -20.9609375 53.75 C-17.38877054 54.32354142 -17.38877054 54.32354142 -13.9609375 52.75 C-10.25022869 48.7157935 -8.2824204 44.21520924 -7.9609375 38.75 C-7.88552734 37.52990234 -7.88552734 37.52990234 -7.80859375 36.28515625 C-7.54033445 28.63440099 -8.01441362 21.00668429 -13.3359375 15.125 C-18.70384109 12.31324098 -21.88731215 13.35477265 -25.9609375 17.75 Z " fill="#111111" transform="translate(147.9609375,27.25)"/>
<path d="M0 0 C10.49532397 10.78686075 10.25 19.59134674 10.25 35.3125 C-3.61 35.3125 -17.47 35.3125 -31.75 35.3125 C-30.04339989 45.88567894 -30.04339989 45.88567894 -23.75 52.3125 C-17.43979967 53.30884742 -12.41714041 51.42925152 -6.484375 49.28515625 C-4.24359092 48.48807734 -2.066181 47.83639808 0.25 47.3125 C1.31092734 49.21857285 2.34820101 51.13782746 3.375 53.0625 C3.95507812 54.12984375 4.53515625 55.1971875 5.1328125 56.296875 C6.25 59.3125 6.25 59.3125 5.8359375 61.4765625 C3.56625195 64.104031 0.83178354 65.46739554 -2.25 66.9375 C-2.88075439 67.24236328 -3.51150879 67.54722656 -4.16137695 67.86132812 C-13.42893629 72.18705304 -23.09819345 73.98204218 -33.01171875 70.5234375 C-41.47484993 66.55785603 -47.17226317 60.62314203 -50.69140625 52.0078125 C-54.84282598 40.09504284 -55.60994056 26.94264503 -51.0859375 15.0390625 C-46.20127255 5.06977555 -38.96853812 -0.79385309 -28.75 -4.6875 C-18.51873012 -7.8419686 -8.87075778 -5.44341955 0 0 Z M-26.3828125 12.53515625 C-28.38712321 14.91488541 -28.38712321 14.91488541 -29.75 21.3125 C-23.48 21.3125 -17.21 21.3125 -10.75 21.3125 C-11.13437381 15.00300376 -11.13437381 15.00300376 -14.5625 11.375 C-19.56840008 8.13588818 -21.88022635 9.07073115 -26.3828125 12.53515625 Z " fill="#111111" transform="translate(323.75,27.6875)"/>
<path d="M0 0 C4.29 0 8.58 0 13 0 C16 3 16 3 16.29296875 5.15625 C16.25816406 5.9296875 16.22335937 6.703125 16.1875 7.5 C16.16042969 8.2734375 16.13335938 9.046875 16.10546875 9.84375 C16.07066406 10.5553125 16.03585937 11.266875 16 12 C16 12.99 16 13.98 16 15 C16.66 15.66 17.32 16.32 18 17 C18.50421994 20.03704568 18.45467228 22.95802594 18 26 C16.12379387 28.50160818 14.76108697 29.61945652 12 31 C10.33555539 31.0955931 8.66718037 31.12984645 7 31.125 C6.113125 31.12757813 5.22625 31.13015625 4.3125 31.1328125 C2 31 2 31 0 30 C0 20.1 0 10.2 0 0 Z M4 3 C4 6.3 4 9.6 4 13 C8.47883696 12.55296014 8.47883696 12.55296014 12 10 C11.90888062 7.46048456 11.90888062 7.46048456 11 5 C8.04622502 2.63019987 8.04622502 2.63019987 4 3 Z M4 16 C4 19.63 4 23.26 4 27 C7.60008519 27.32728047 9.41611492 27.40422813 12.4375 25.3125 C14.29977201 23.08190192 14.29977201 23.08190192 13.75 20.25 C13.5025 19.5075 13.255 18.765 13 18 C8.60746227 16.43727811 8.60746227 16.43727811 4 16 Z " fill="#999999" transform="translate(581,111)"/>
<path d="M0 0 C3.74414323 2.9121114 5.5318526 5.55028453 7 10 C7.86116941 17.25985837 7.57756306 24.02926558 3 30 C-0.7373856 32.4915904 -2.57331583 32.45793285 -7 32 C-11.0474472 29.57153168 -12.59639199 27.43440761 -14 23 C-14.30078125 19.66015625 -14.30078125 19.66015625 -14.3125 16.0625 C-14.32925781 14.87785156 -14.34601562 13.69320312 -14.36328125 12.47265625 C-13.88155577 7.86777505 -12.41280372 4.51371827 -9.25 1.125 C-5.92438491 -0.53780754 -3.66561813 -0.51447272 0 0 Z M-6.625 5.125 C-10.00716773 9.7370469 -10.68072631 14.37337159 -10 20 C-9.31610616 22.78366166 -8.49917808 24.46690601 -7 27 C-4.57589864 28.31901591 -4.57589864 28.31901591 -2 28 C0.53844009 26.18682851 0.99489025 25.01532925 2 22 C2.1447963 20.04524991 2.22067502 18.0848862 2.25 16.125 C2.27578125 15.09632812 2.3015625 14.06765625 2.328125 13.0078125 C1.95503198 9.58779313 1.03027507 7.74974147 -1 5 C-3.47717971 3.76141014 -4.32160471 3.53034172 -6.625 5.125 Z " fill="#999999" transform="translate(636,110)"/>
<path d="M0 0 C0.99 0.66 1.98 1.32 3 2 C3 2.99 3 3.98 3 5 C1.96939453 4.93039063 1.96939453 4.93039063 0.91796875 4.859375 C0.01691406 4.82328125 -0.88414062 4.7871875 -1.8125 4.75 C-3.15248047 4.68039063 -3.15248047 4.68039063 -4.51953125 4.609375 C-7.14301652 4.76207691 -7.14301652 4.76207691 -8.78125 6.90234375 C-11.26620982 11.1793419 -11.25847033 15.08906379 -11 20 C-10.02515446 23.13343209 -9.32377005 24.67622995 -7 27 C-5.01178687 27.39764263 -3.01055661 27.73775349 -1 28 C-1 24.7 -1 21.4 -1 18 C0.32 18 1.64 18 3 18 C3 22.29 3 26.58 3 31 C-0.45179569 32.72589785 -4.21866039 32.36043965 -8 32 C-12.27122302 30.23579919 -13.99086859 28.10268011 -16 24 C-16.76511927 17.78254434 -17.28892659 10.36897145 -14.25 4.6875 C-9.91716269 -0.48783345 -6.50086832 -0.41275354 0 0 Z " fill="#999999" transform="translate(664,110)"/>
<path d="M0 0 C1.32 0 2.64 0 4 0 C4 8.91 4 17.82 4 27 C7.3 27 10.6 27 14 27 C14 27.99 14 28.98 14 30 C9.38 30 4.76 30 0 30 C0 20.1 0 10.2 0 0 Z " fill="#999999" transform="translate(605,111)"/>
</svg>
