<svg xmlns="http://www.w3.org/2000/svg" viewBox="0 0 1578.38 1343.29"><defs><style>.cls-1{fill:#9bc1f9;opacity:0.1;}.cls-2{fill:#5c75b0;}.cls-3{fill:#0e2e35;}.cls-4{fill:#f8a492;}.cls-5{fill:#355389;}.cls-6{fill:#fe875e;}.cls-7{fill:#13375b;}.cls-8{fill:#c9d8f4;}.cls-9{fill:#f48c7f;}.cls-10{fill:#9a5d7f;}.cls-11{fill:#ceddf9;}.cls-12{fill:#c8cad7;}.cls-13{fill:#4c4c78;}.cls-14{fill:#f7a491;}.cls-15{fill:#49467c;}.cls-16{fill:#f47458;}.cls-17{fill:#ca8496;}.cls-18{fill:#fff;}.cls-19{fill:#3d364c;}.cls-20{fill:#466eb6;}</style></defs><g id="Capa_2" data-name="Capa 2"><g id="Capa_1-2" data-name="Capa 1"><path class="cls-1" d="M135.14,1255.53h1379c114.3-95.35,55.48-382.26-40-440.43-102.77-62.61,60.43-279.13-97.89-349.41-103.36-45.89-267.76,4.12-245.64-118.65,30.66-170.24-327.75-213.86-591.8-168-285.47,49.61-24.78,293.55-338.71,342.69C38.71,547,69.91,763.25,85,807.93c13.11,38.92,99.84,100.64-20.7,185.64C-112.49,1118.22,131,1253.24,135.14,1255.53Z"/><ellipse class="cls-2" cx="802.11" cy="1280.85" rx="776.27" ry="62.44"/><path class="cls-3" d="M983.83,21.56l-12,34s-10.28,30.91,6,39.12,35.4,2.88,35.4,2.88,26.21-1.32,31.42-29.68S1030,14.09,1030,14.09Z"/><path class="cls-4" d="M1238.33,987.53c8.34,1.35,7.85,2.71,8.92,2.85,1.27.17,16.33-7.39,16.33-7.39s44.54-22,46.9-23.25l32.14-40.44,24.77,11.42s-36.15,43-38.43,44.89-66.15,24.29-71.7,26.45c0,0-5.6,5.11-9.22,8.21s-8.47,4.31-9.62,5a40.15,40.15,0,0,1-9.82,3.45c-4.86,1.06-.81-2.25-.81-2.25s8.61-3.63,8.19-4.29-4.91,1.77-10.28,3c-1.38.32-2.74.63-4,.9-3.29.71-4.74-1.17-1.43-2.49a32.86,32.86,0,0,1,4.61-1.49,26.26,26.26,0,0,0,4.23-1.66,34.28,34.28,0,0,0,4.35-1.75c-.13-.11.23-.68-1.25-.39-1.77.35-5.36,1.94-8,2.25-1.51.17-4.63.72-4.63.72s-5.53.53-5.57-.25c-.08-1.69,3.32-2.63,5.41-2.59a21.91,21.91,0,0,1,4.62-1.16s6.41-2.53,6-3.48c-.15-.37-4,.21-8.15.49-4.35.3-7.5.3-7.73-.55-.37-1.33,3.09-1.84,3.09-1.84s3.06-.44,4.06-.67c1.17-.27,4.61-1.35,4.61-1.35s11.79-4.33,11.36-5.2-2.37-2.69-3.2-2.68-2.32.83-3.15.84-2.62-.16-2.74-1.21,4.49-3.21,4.49-3.21A13.07,13.07,0,0,1,1238.33,987.53Z"/><path class="cls-5" d="M1320.25,944.34s8,7.29,11.36,9.69c2.77,2,16.28,8.5,16.28,8.5s13.45-20.59,19.33-30.91c7.13-12.52,12.06-31.15,10.38-31.65-4.73-1.42-11.24-2.29-17.25.47C1339.55,910,1320.25,944.34,1320.25,944.34Z"/><path class="cls-6" d="M1246.12,998.28c-3.57.57-7.22-.11-8.8-3.38C1237,998.78,1242.84,1000.7,1246.12,998.28Z"/><path class="cls-7" d="M249.37,853.88c.5-12-1.26-23.83-6.6-35-4.6-9.6-16-15-26.33-15.06-32.93-.05-37.12,43.64-58.07,60.49-6.41,5.15-13.57,9.35-19.63,14.9-22.37,20.5-12.29,58.46,8.25,76.44,14.26,12.47,36.67,19.56,54.24,9.81,9.18-5.09,16.14-13.56,21.1-22.83,7-13.15,11.58-28.34,16.59-42.36C244.25,885.35,248.71,869.81,249.37,853.88Z"/><path class="cls-8" d="M254.75,911.93c-10.28-31.19-23.86-30.71-23.86-30.71l11,66.43c6.35-1.73,14.62-5.6,21-7.39A286.4,286.4,0,0,0,254.75,911.93Z"/><path class="cls-9" d="M306.72,1018.33l-37.59-28.68s-3.79-26.76-8.85-50.5c-6.34,1.79-12.07,6.77-18.42,8.5l9.56,53.17,49.28,25.43,13.92,17.88,3.16-18.36Z"/><path class="cls-10" d="M649.44,973.53a64.8,64.8,0,0,1,32.1,8.46,34.07,34.07,0,0,0,3.88,1.87c28.89,11.87,60.5-10.11,60.5-41.34V788.92H592.32c-31.24,0-53.21-31.62-41.35-60.51a33.25,33.25,0,0,1,1.88-3.88,65.13,65.13,0,1,0-113.79-.81,35.19,35.19,0,0,1,1.84,3.95c11.77,29.36-10.55,61.25-42.19,61.25H246.43v350a149.49,149.49,0,0,0,149.49,149.5h350v-153.1c0-31.38-31.71-53.5-60.79-41.67a35.05,35.05,0,0,0-3.89,1.86,65.13,65.13,0,1,1-31.8-122Z"/><path class="cls-11" d="M982.35,888.33a64.81,64.81,0,0,1,9.95-31.67,34.72,34.72,0,0,0,2.05-3.79c13.2-28.3-7.28-60.91-38.47-62.37l-153.44-7.17-7.17,153.44c-1.46,31.19-34.07,51.67-62.37,38.47a33.82,33.82,0,0,1-3.79-2A65.12,65.12,0,1,0,723,1086.82a35.3,35.3,0,0,1,4-1.67c29.88-10.38,60.68,13.41,59.2,45l-7.11,152.11,349.62,16.35A149.5,149.5,0,0,0,1285,1156.27l16.34-349.62-152.92-7.15c-31.35-1.46-54.92,29.19-44.47,58.78a34.47,34.47,0,0,0,1.68,4,65.13,65.13,0,1,1-123.32,26.07Z"/><path class="cls-12" d="M554.81,646.74A64.82,64.82,0,0,1,548,679.22a34.29,34.29,0,0,0-1.67,4c-10.4,29.45,13.13,59.92,44.33,58.35L744,733.83l-7.72-153.41c-1.56-31.2,28.91-54.73,58.36-44.33a34.13,34.13,0,0,1,4,1.67,65.13,65.13,0,1,0-4.9-113.69,34.93,34.93,0,0,1-3.85,2.05c-28.74,13.23-61.7-7.47-63.29-39.06L719,235,369.4,252.54A149.5,149.5,0,0,0,227.6,409.36l17.58,349.55,152.9-7.69c31.34-1.57,51.84-34.36,38.56-62.8a33.25,33.25,0,0,0-2.05-3.8,65.13,65.13,0,1,1,120.22-37.88Z"/><path class="cls-13" d="M868.8,562.07a64.8,64.8,0,0,1-32.1-8.46,34.07,34.07,0,0,0-3.88-1.87c-28.89-11.86-60.5,10.11-60.5,41.34V746.69h153.6c31.23,0,53.21,31.61,41.35,60.5a32.49,32.49,0,0,1-1.88,3.88,65.13,65.13,0,1,0,113.79.81,35.19,35.19,0,0,1-1.84-4c-11.77-29.36,10.55-61.24,42.19-61.24h152.28v-350A149.49,149.49,0,0,0,1122.32,247.2h-350V400.29c0,31.39,31.71,53.5,60.78,41.67a34.37,34.37,0,0,0,3.9-1.85,65.13,65.13,0,1,1,31.8,122Z"/><path class="cls-14" d="M146.45,1239.84s-2.32,16.13-6.31,21.33c-1.34,1.75-3.78,4-5.39,7.11-2.5,4.92-1.12,12.23.73,16.26.94,2.07-.07,2.06,2.09,2.73a13.23,13.23,0,0,0,15.89-7.48,38,38,0,0,0,3.12-13.74c.68-14.64,5.22-22.09,5.22-22.09Z"/><path class="cls-14" d="M216.27,1247.22s1.43,18.18.27,24.09c-.62,3.16-4.09,9.68-2.5,12.65s3.41,3.73,3.41,3.73l41.21.66c2.24,0,.76-1.41-1.05-2.74-3-2.19-5.35-3.63-14.82-8.22-.61-.3-2.86-1.73-3.67-2.23a28.31,28.31,0,0,1-5.9-5.21c-3-3.31-3.22-19.32-3.22-19.32Z"/><path class="cls-15" d="M248.48,1005.51s5.19,29.52,1.78,48.88-19.76,198.76-19.76,198.76l-18.18,1s-3.8-74.94-3.12-85.36,6.07-27.87,6.07-27.87l-1.81-60.51L236.4,1001Z"/><path class="cls-15" d="M195.06,999.3s-14.31,21.59-17.71,39.45,2.5,72.78-4.06,96.19c-3.55,12.68-17,32.25-19,48.63s-10.06,59.27-10.06,59.27l18.16,3.61,42.22-107.14,33.12-96.84,8.48-49.87Z"/><path class="cls-8" d="M206.65,876.47s-19-1.21-26.45,7,16.63,73,18,83.39-6.95,38.14-6.95,38.14,44.51,9,57.23.54c0,0,1.36-75,0-82.39S235.76,885.4,233,882.42,206.65,876.47,206.65,876.47Z"/><path class="cls-14" d="M213,851.09s-.1.56-.28,1.51c-.84,4.57-4.1,19.71-6.29,23.88-2.66,5,9.09,21.08,20.4,19.12,3.36-.59-2.85-14.75-2.55-16.25.57-2.87,1.35-6.79,2.14-10.81.45-2.26.9-4.56,1.32-6.72l2.2-11.15Z"/><path class="cls-16" d="M212.68,852.6c.18-1,.28-1.51.28-1.51l16.94-.42-2.2,11.15c-.42,2.15-.87,4.43-1.31,6.69a15.84,15.84,0,0,1-8.09-4.07,21.39,21.39,0,0,1-6.13-9.13C212.38,854.23,212.55,853.31,212.68,852.6Z"/><path class="cls-14" d="M224.36,812.49s-8-.93-13,5.56-10.4,26.56,2,37.47S238.13,854.08,240,841,242.48,812,224.36,812.49Z"/><path class="cls-14" d="M243.63,840.79c-1.49,2.89-4,4.5-5.57,3.58s-1.67-4-.19-6.9,4-4.49,5.57-3.57S245.11,837.9,243.63,840.79Z"/><path class="cls-7" d="M225.25,810.34s-10.67,19.09-18.3,20-8.63,11-8.63,11S201,818,208.6,813.46,225.25,810.34,225.25,810.34Z"/><path class="cls-17" d="M154.7,1276.57c-9.91,1.81-16.49-4-19.92-8.34-2.52,4.92-3.74,12.27-1.89,16.31,1.63,3.56,6.39,3.46,10.14,3.6,4,.15,7-2.06,9-5.52A33.56,33.56,0,0,0,154.7,1276.57Z"/><path class="cls-17" d="M239.11,1275.16c-10.9,2.8-19,.9-23.46-.92-1.16,3.3-2.7,7.44-1.89,9.83,1,2.92,2.43,3.58,3.69,3.62,10,.26,36.46.62,44.05.72a1.25,1.25,0,0,0,1-2.05C260.58,1284.11,239.92,1275.66,239.11,1275.16Z"/><path class="cls-14" d="M209,835.1c.62,3.39-.63,6.5-2.79,6.94s-4.41-1.94-5-5.33.62-6.49,2.79-6.94S208.33,831.71,209,835.1Z"/><path class="cls-18" d="M221.42,846.84l9.63.44a4.22,4.22,0,0,1-4.63,3.58C221.25,850.77,221.42,846.84,221.42,846.84Z"/><path class="cls-10" d="M1043,78.62c1.2,0,4.48,1.15,9.29,10.24,6.14,11.6,15.11,46.65,15.11,46.65l-26.78,10-3.44-7.31-5.67-56.32S1042.62,78.61,1043,78.62Z"/><path class="cls-10" d="M1007.55,73.57c7.66,0,24.32,2.25,33.12,5.06,0,0,8.75,55.53-3.53,97.73-2.75,9.44,2.27,39.16,2.27,39.16l-79.36-1.05S980.14,142.64,976.6,131s-12-52-12-52-1.74-.09,15.54-3.07A179,179,0,0,1,1007.55,73.57Z"/><path class="cls-14" d="M998.3,318.59s1.76,20.27,5,25.88-.17,15.15-.34,16.46-6.8,3.18-17.33,2.06-10.37-3.56-9.52-7.49,6.46-9,6.8-12.72-3.23-17.21-3.23-17.21Z"/><path class="cls-18" d="M1030.46,198.79s54.78-3,67,4.37-8.69,43.77-8.69,43.77-38.12-1.76-112.78,2.55c-17.69,1-19.21-46.1-15.9-50S1030.46,198.79,1030.46,198.79Z"/><path class="cls-17" d="M984.3,364.56c-10.84-1.16-9.5-6.49-8.63-10.53.55-2.53,3.66-5.52,5.52-8.34,1,.77,2.54,2.13,7.26,3.52,4.89,1.45,11.59-1.41,15.86-3.2a52.31,52.31,0,0,1,1.46,14C1005.59,361.35,995.15,365.71,984.3,364.56Z"/><path class="cls-18" d="M990.29,238c2.19,16.57,13,99,13,99l-25.15,3.11S947.25,232.5,948.84,216,962,198.19,962,198.19,984.5,194.14,990.29,238Z"/><path class="cls-14" d="M968.17,85.17c7.42-2.78,11.05,64.08,12.05,91.59,13.14,1.27,36,0,41.75-.41,2.68-.21,8.86-2.47,11.53-2.82a26.82,26.82,0,0,1,6.56-.31c.49.09,14.19,5.69,15.36,6.91,1.45,1.53,5.38,5.37,4.72,7s-7.56-4.63-7.56-4.63l-3.37-1.89c4.2,4.1,12.19,9.49,11,11.46s-8.34-3.56-13.48-7.29c4.41,4,9.89,11.11,8.63,12.22s-7.37-7.25-14-9.63c-2.47-.88-4.93,1.56-6.87,1.85-1.43.22-3.63.68-5,.28l-7.21-2c-2.46.22-2.52,1.67-5,2.2-2.88.62-7.6,1.26-11.27,2.16-21.12,5.16-28.17,7.55-34.63,7.55C951.77,199.39,950.63,91.75,968.17,85.17Z"/><path class="cls-10" d="M954.09,144.56c-1.39-28.18-1.19-62.93,14.61-68.85,6.24-2.34,17.23,11.72,15.25,69.43C975.52,145.83,963.13,146.39,954.09,144.56Z"/><path class="cls-14" d="M1071.83,335.92s-2.19,7,1.74,11.69,20.25,9.22,22.4,11.74a7.07,7.07,0,0,1,2,4.66l-45.82-1.26.5-13.84,2.11-9.94Z"/><path class="cls-17" d="M1076.42,349.93s-11.77,4.76-17.46,1.94-5.52-3.6-7.16-2.55-2.24,14-2.24,14l51.53,1.51c3.58-.08,5.39-2.72,2.48-5a42,42,0,0,0-5.62-3.34C1093.92,354.23,1076.42,349.93,1076.42,349.93Z"/><path class="cls-18" d="M1070.1,211.78c3.54-7.46,11.59-17.16,25.76-11.32,13.52,5.58,17.15,19.28,12.88,33.3s-32.33,96.49-33.31,107.83l-22.42.15s4.07-65.29,5.07-81.08C1059.05,245.48,1064,224.67,1070.1,211.78Z"/><path d="M1106.49,135.83h-74.93a4.87,4.87,0,0,0-4.52,3L1004,195.33H962.66a2.1,2.1,0,0,0-2.1,2.1h0a2.1,2.1,0,0,0,2.1,2.1h117.57a8.2,8.2,0,0,0,7.48-4.87l23.23-51.92A4.89,4.89,0,0,0,1106.49,135.83Z"/><path class="cls-18" d="M1066.14,168.71c-.5,2.53-2.71,4.23-4.92,3.78s-3.6-2.86-3.09-5.39,2.71-4.23,4.92-3.79S1066.65,166.17,1066.14,168.71Z"/><path class="cls-3" d="M1025.36,5.74a58.34,58.34,0,0,1-6.63-2.65,33.48,33.48,0,0,0-7.56-2.85C1007-.4,999.81,0,995.84,4.33c-4.94,5.36-13.73,1-12,29.05,2,31.78,19.68,28.29,20.11,27.76s15.76-20.34,15.76-20.34,5.36,11.73,5.36,11.3S1052.49,14.88,1025.36,5.74Z"/><path class="cls-14" d="M1011.94,63.48l1.53,11.36s3.42,16.36-1,19.52-18.7-20-18.7-20L995.3,45.6Z"/><path class="cls-16" d="M994.81,54.92c3.64,9.82,12.29,15.85,18.43,18.19l-1.3-9.63L995.3,45.6Z"/><path class="cls-14" d="M1011,14.28a15.14,15.14,0,0,1,17.44,15.31,113.49,113.49,0,0,1-1.28,14.57c-2,13.11-12.48,20.79-16.88,20.25-2.33-.28-20.8-9-18.18-27.62C993.76,25.27,1001.26,15.86,1011,14.28Z"/><path class="cls-14" d="M996.25,39c-.5,2.89-2.81,4.89-5.16,4.48s-3.85-3.08-3.35-6,2.81-4.89,5.16-4.48S996.75,36.13,996.25,39Z"/><path class="cls-3" d="M992.9,26.84s7.15,1.78,9.8-2.82,12.14-14.53,24.21-10.41-10.62-10-11.58-10l-12.55-.08s-8.92,7.34-9.25,8.15-2.89,9.6-2.89,9.6Z"/><path class="cls-18" d="M1006,52.24l13,2.49s-1.24,4.9-7,4C1005,57.57,1006,52.24,1006,52.24Z"/><path class="cls-4" d="M785.87,958.17a13.68,13.68,0,0,0,1.42,3.43c4.08,7.43,13.55,18,13.55,18l7.32-16.5s-1.19-5.19-3.26-12.59C797.82,952.39,791.09,953.45,785.87,958.17Z"/><path class="cls-7" d="M827.86,943.85S787,961.44,785.69,961.11c-.85-.22-16.75-26.84-16.92-51.87-.08-11.56,11.93-25.47,25.33-22.72,6.74,1.38,6.64,3.26,16.61,17.76S827.86,943.85,827.86,943.85Z"/><path class="cls-14" d="M862.73,1259.22s-1,16-1,16.07c-.35,2-1.75,7.07-1.75,8.92,0,7,33-5.9,25.62-9-.67-.28-4.18-2.39-4.4-4.76-.34-3.65-1.2-11-1.2-11Z"/><path class="cls-17" d="M885.54,1275.16s-7.75,2.13-11.73,2.66-9.2-4-12-2.74c-3.09,1.34-3,13.32-3,13.32s41.58,3.41,53.27-.12C916.74,1286.89,901.39,1280.12,885.54,1275.16Z"/><path class="cls-14" d="M795.16,1259.22s-1,16-1,16.07c-.36,2-1.76,7.07-1.76,8.92,0,7,33-5.9,25.63-9-.67-.28-5.23-4-5.45-6.33-.34-3.65-.16-9.46-.16-9.46Z"/><path class="cls-17" d="M818,1275.16s-7.75,2.13-11.72,2.66-9.21-4-12-2.74c-3.09,1.34-3.22,13.32-3.22,13.32s41.78,4,53.53-.12C849.1,1286.69,833.83,1280.12,818,1275.16Z"/><path class="cls-14" d="M805.26,967.06l29.09-40.76c.12-.35.38-1.08.79-2.2,1.46-4,4.51-12.46,7.17-20.83l0-.09c.83-2.92,2.6-8,4.31-13,1.9-5.49,4.26-12.3,4.34-13.46-.07-.2-.21-.56-.39-1a93.69,93.69,0,0,1-3-12.23c-.32-1.83-.65-6.27,1.52-6.27,3.41,0,1.79,4.44,3.36,7.2a70,70,0,0,0,2.37-9.23l.57-8.66c.11-.66-.59-5.44,1.81-5.44h.11c2.15.15,2.1,5.24,3,13.83.28-1,.56-2.18.77-3.28a32.38,32.38,0,0,1,.73-4.53c-.43-2.4-.18-6.18,2.37-5.82,1.28.18,1.17,5.45,1.17,5.45,0,.72-.08,6.3-.05,7.4.27-1.87,1.29-9.85,3.29-9.85,1.66,0,1.79,2.15,1.76,3.85,0,1-1.07,9.64-1.12,10.65.78-1.31,1.7-8.93,2.48-8.93,3.23,0,2.06,10.83.88,13.65a11.82,11.82,0,0,0-.37,1.51,26.63,26.63,0,0,1-2.78,8.06c-2,3.47-4.83,9-5.26,9.85-.31,1.72-1.28,7.93-2.51,15.74-.52,3.34-1.1,7-1.7,10.8h0c-.11.82-.71,3.44-3,13.23-3.15,13.41-3.48,14-3.62,14.23-1.37,2.42-32.73,45-34.07,46.83l-.78,1.07Z"/><path class="cls-16" d="M859.36,872s-2.36-6-6.56-6a4.81,4.81,0,0,1,4.36.75C859.18,868.3,859.36,872,859.36,872Z"/><path class="cls-14" d="M798.23,860.34,794.48,884s14.27,11.45,22.59,9c7-2,2.19-11.15,2.19-11.15s-3.71-12.65-2.57-19.27S798.23,860.34,798.23,860.34Z"/><path class="cls-6" d="M800.92,867.5a58.16,58.16,0,0,0,16.15,4.56,31.19,31.19,0,0,1-.38-9.41c.52-3.06-3.37-3.79-7.71-3.68-5.69.49-10.75,1.37-10.75,1.37l-.72,4.56A11.68,11.68,0,0,0,800.92,867.5Z"/><path class="cls-14" d="M780.22,833c-.59,0,5.64,26.45,15.28,31s24,2.17,26.72-4.95c3-7.88-7.9-34.87-21.46-38.3S780.22,833,780.22,833Z"/><path class="cls-7" d="M791.38,808.72A30.41,30.41,0,0,0,779,822.44c-3.61,1.72-8,5.43-10.08,15.42-2.58,12.29,6.59,21.77,16.32,24.62s11.23,9.28,11.23,9.28l1.11-6.92s-2.17-6-5.42-9.06,1.54-7.41,2-11c.33-2.77-1.71-8.13-1.27-12.67,0,0,5.41-8.19,10.74-10.21C812.62,818.45,801.26,803,791.38,808.72Z"/><path class="cls-14" d="M795.47,849.38c1.26,3.06.75,6.09-1.15,6.78s-4.45-1.23-5.71-4.29-.74-6.09,1.15-6.78S794.21,846.33,795.47,849.38Z"/><path class="cls-4" d="M831.38,967.71l56.12-9.15s-6.39-16.07-8.67-16.07S836.4,960,836.4,960l-3.19,6.41Z"/><path class="cls-19" d="M802.64,1006.18s-5.6,27.06-3.31,47.58,2.46,93.41,2.46,93.41l-8.71,116.63,20.65.44s24.5-116.56,24-113.57,8.21-82.08,8.21-82.08l-29.2-65Z"/><path class="cls-19" d="M808.12,1004.9s-3.65,24.37.91,35.05,39.13,115.55,39.59,124.1,12,103,12,103l24-.68,5.2-105.06-10.88-132-10.56-33.39Z"/><path class="cls-14" d="M794.48,884s5.93,3.88,11.45,3.43,13.33-5.54,13.33-5.54l-1.08-3.68s-14.29-2.08-14.65-1.86S794.48,884,794.48,884Z"/><path class="cls-4" d="M857.61,941.7s21.22,20,30.8,16.61,13.55-15.11-9.83-32.22C857.66,910.79,857.61,941.7,857.61,941.7Z"/><path class="cls-5" d="M872,966.43c-3.16-17.16-26-70.54-27.83-80.37-.89-4.78-13.22-4.88-25-4.26-12.4.66-24.72,2.23-24.72,2.23s-11,1.8-15.8,6.33-6.12,17,.83,40.8c5.48,18.76,12.27,29.05,15.63,42.72.68,4.58,1.27,9.1,2,14.38,1.24,20.43,0,47.42,0,47.42s59.76,12.4,82.12-6.41C879.29,1029.27,875.22,984,872,966.43Z"/><path class="cls-20" d="M887.23,929.54s-23.46,19.36-24.82,19.36c-.88,0-33.47-24-41-43.66-4.16-10.89,4.56-23.07,14.53-23,6.9,0,10,1.81,23.66,13.35S887.23,929.54,887.23,929.54Z"/><path class="cls-14" d="M1451.88,1259.88s.89,15.76.9,15.79c.32,2,1.61,6.94,1.61,8.76,0,6.84-30.32-5.8-23.52-8.83.61-.27,3.83-2.34,4-4.67.31-3.58,1.1-10.83,1.1-10.83Z"/><path class="cls-17" d="M1430.58,1275.67a108.05,108.05,0,0,0,10.76,2.61c3.65.53,8.45-3.87,11-2.69,2.84,1.31,2.73,13.09,2.73,13.09s-38.17,3.35-48.91-.12C1401.94,1287.19,1416,1280.54,1430.58,1275.67Z"/><path class="cls-14" d="M1502.37,1259.06s.89,15.76.9,15.79c.32,2,1.61,7,1.61,8.77,0,6.83-30.32-5.81-23.52-8.83.61-.28,4.79-3.9,5-6.23.31-3.58.15-9.28.15-9.28Z"/><path class="cls-17" d="M1481.43,1274.72a108.49,108.49,0,0,0,10.77,2.61c3.64.53,8.45-3.87,11-2.69,2.84,1.31,3,13.09,3,13.09s-37.9,1.56-49.13-.12C1452.63,1287,1466.88,1279.59,1481.43,1274.72Z"/><path class="cls-19" d="M1493.49,1008.75s5.11,26.59,3,46.75-2.34,91.77-2.34,91.77l9.55,114.55-20.63.46s-22.37-114.54-22-111.6-7.46-80.65-7.46-80.65l26.86-63.81Z"/><path class="cls-19" d="M1486.32,991.58s23.25,24.54,14.57,51.31c-3.49,10.75-36,113.48-36.45,121.88S1453.37,1266,1453.37,1266l-22-.69-4.68-103.22,6.43-139.08,13.41-23.44Z"/><path class="cls-18" d="M1344.87,911.76c7.62-8.51,24.21-20.61,24.21-20.61s9.88-8.44,13.91-9.83c5.93-2.05,16.09-7.5,30.78,14.77,10.51,15.93,76.85,98.43,87.74,101.21l-71.11,34c-2-16.25-37.1-46.95-42.15-52.68C1376.94,965.84,1337.65,919.81,1344.87,911.76Z"/><path class="cls-14" d="M1348.18,877.19l22.16,13s.62,18.91-6.62,23.82c-6.08,4.12-10.7-5.77-10.7-5.77s-8.24-11.42-14.5-15S1348.18,877.19,1348.18,877.19Z"/><path class="cls-16" d="M1351.9,885.51a46.23,46.23,0,0,1-5.75,14.35,35.83,35.83,0,0,0-7.63-6.62c-2.89-1.64-1-5.19,1.77-8.53,4-4.14,7.89-7.52,7.89-7.52l4.26,2.49A19.58,19.58,0,0,1,1351.9,885.51Z"/><path class="cls-14" d="M1336.65,844.69c.37-.46,18.58,22.2,16.33,32.84s-13.25,20.33-20.9,17.66c-8.47-3-24.2-29.63-18.56-42.59S1336.65,844.69,1336.65,844.69Z"/><path class="cls-7" d="M1316.71,837.54c7.93-4.42,20.88-5.69,30.56-.62,11.89,6.23,14.6,21.9,10.88,31.46s.54,15,.54,15l-6.31-3.69s-3.69-5.75-4.17-10.33-7.17-3.78-10.43-5.86c-2.52-1.6-5.73-6.8-9.8-9.5,0,0-10.24-1.26-15.28,1.57C1304.11,860.35,1305.34,843.86,1316.71,837.54Z"/><path class="cls-14" d="M1342.89,867.28c-.05,3.4,1.55,6.19,3.59,6.22s3.75-2.69,3.81-6.1-1.55-6.18-3.59-6.21S1343,863.88,1342.89,867.28Z"/><path class="cls-18" d="M1324.24,885.33l9.64-7.21a5.33,5.33,0,0,1-1.59,7.19C1327.23,889.33,1324.24,885.33,1324.24,885.33Z"/><path class="cls-4" d="M1300,1028.74c2.42-3.53,3.47-8.62,6.81-12.51a29.87,29.87,0,0,1,4.94-4.24c16.06-9.39,57.9-33.62,59.53-35.5,1.93-2.23,30.49-49.68,30.49-49.68L1376.15,921l-25.07,44.26c-2.09,1.66-41.88,31.07-41.88,31.07s-7.91,6.18-12.24,9.08a34.2,34.2,0,0,1-6.15,2.74,39.08,39.08,0,0,0-7.69,3.82c-1,.92-3.13,2.89-4.38,4.09s-2.75,2.55-3.33,3.27a8.74,8.74,0,0,1-2.26,1.43,1.48,1.48,0,0,0,.25,2.75c1.21.34,2.86-.42,3.88-.9,2.88-1.35,6.4-5,6.59-4.56s-3.39,8.28-3.74,9.2-4.46,10-4.67,12.08,1,2.5,1.93,1.76,7.38-12.82,7.38-12.82.85-1.56,1.18-.67-5.64,12-6.23,13.78-.12,3.31,1.56,2.67c2-.77,7.69-13,7.69-13s.74-1.52,1.24-1-4.74,9.87-4.79,10.94a1.4,1.4,0,0,0,2.32,1.24c1.66-1.06,6.61-12,6.61-12s.61-.73.8-.22-3.7,8.79-3.41,10a1,1,0,0,0,1.16.81C1294.94,1040.84,1297.61,1032.26,1300,1028.74Z"/><path class="cls-5" d="M1394.77,951.88s-8.35-2.66-13.71-5.11c-3.59-1.65-19.24-9.44-19.24-9.44s6.75-28.46,11.31-38.7c16.74-37.56,35.77-11.65,38.35-5.62C1417.25,906.52,1394.77,951.88,1394.77,951.88Z"/><path class="cls-18" d="M811.34,853.52l7.94-5.95A4.39,4.39,0,0,1,818,853.5C813.8,856.82,811.34,853.52,811.34,853.52Z"/><path class="cls-14" d="M274.58,926.74c.68-2-8.81-3.52-9.32-5.5s12-2.12,12.43-3.86c.82-3.19-13.68-.67-13.4-2.16s15.12-4.83,13.52-7.4-15,5.07-15.43,3.33,13.12-6,12.87-9.78c-.13-2-22.19,10.16-24.74,9s2.75-10.69.71-12.11-7.88,19.47-9.29,20.17-31.21,17.7-41.81,20.41c-1.29-3.56-4.07-8.35-5.21-11.71-5.95,4.24-10.37,6.36-16.51,10.22,4.45,11.15,10.78,23.36,13.88,24.76,9.44,4.27,45.94-26,53.23-31.19s11.46-3.5,16.39-5.14S273.89,928.69,274.58,926.74Z"/><path class="cls-8" d="M177.13,942.76s-8.17-36.08-6.75-46.55,13.85-20.22,22.47-16.6,12.53,54,12.53,54Z"/></g></g></svg>