<?xml version="1.0" encoding="utf-8"?>
<!-- Generator: Adobe Illustrator 22.1.0, SVG Export Plug-In . SVG Version: 6.00 Build 0)  -->
<svg version="1.1" id="Layer_1" xmlns="http://www.w3.org/2000/svg" xmlns:xlink="http://www.w3.org/1999/xlink" x="0px" y="0px"
	 viewBox="0 0 800 800" style="enable-background:new 0 0 800 800;" xml:space="preserve">
<style type="text/css">
	.st0{fill:#FFFFFF;}
</style>
<g>
	<path class="st0" d="M64.8,409.4c0-22.3,13.1-49.9,42.2-49.9s42.2,27.6,42.2,49.9s-13.1,49.9-42.2,49.9S64.8,431.7,64.8,409.4z
		 M92.6,409.4c0,16.7,5.4,26.9,14.4,26.9s14.4-10.4,14.4-26.9c0-16.7-5.4-26.7-14.4-26.7S92.6,392.7,92.6,409.4z"/>
	<path class="st0" d="M256.2,389.8c0-5-1.2-7.5-4.8-7.5c-9.4,0-16.9,6.3-16.9,6.3v67.8h-27.8v-66c0-6.3-1.5-7.9-4.6-7.9
		c-9.6,0-13.6,5-17.3,7.7v66.2H157v-94.3h27.8v7.1c5.2-4,15.2-9.8,22.1-9.8c16.7,0,22.1,9.8,22.1,9.8s14.6-9.8,24-9.8
		c24,0,31.1,13.1,31.1,28.4v68.5h-27.8v-66.5H256.2z"/>
	<path class="st0" d="M319,411.9c-0.2,1-0.2,2.1-0.2,3.1c0,8.8,3.6,21.5,14.6,21.5c8.6,0,19.4-3.1,26.5-8.3l8.1,17.3
		c-9.2,7.7-23.8,14-35.5,14c-29.6,0-41.5-26.5-41.5-52.2s18.2-47.8,44.9-47.8c20.4,0,36.9,16.9,37.4,37.1c0.2,5.2,0.4,10.2,0.4,15.4
		H319V411.9z M334.5,377.9c-7.9,0-12.9,9.6-13.6,16.3h26.7C347.4,386.8,343.2,377.9,334.5,377.9z"/>
	<path class="st0" d="M452.8,395.6c0,16.5-12.1,27.6-27.1,30.5c-4,0.8-15,1.3-15,7.1c0,4,11.9,3.3,15.7,3.3h6.1
		c14.2,0,26.7,5.6,26.7,21.3c0,24.4-24.2,36.7-45.3,36.7c-15.7,0-36.5-6-36.5-26.7c0-8.3,9.4-16.1,16.5-18.6
		c-5.2-1.5-10.8-6.7-10.8-12.9c0-6.7,8.1-12.3,12.9-15c-9.4-4.6-16.1-17.1-16.1-26.1c0-21.5,15.4-35.7,37.8-35.7
		c5.4,0,11.1,0.8,16.5,2.9H458v20.2l-9-2.3C449,380.2,452.8,386.9,452.8,395.6z M412.7,455.9c0,0-8.4,5.2-8.4,9.2
		c0,6.3,4.2,8.3,10.6,8.3c10,0,18.6-5.8,18.6-14.2c0-3.8-6.9-3.3-10.6-3.3H412.7z M407.5,393.3c0,6.9,1.3,13.8,9.6,13.8
		c7.3,0,8.8-7.7,8.8-12.9c0-6.1-1.7-13.6-9.2-13.6C409.2,380.6,407.5,387.1,407.5,393.3z"/>
	<path class="st0" d="M528.6,459.3c-10,0-15.6-6.5-16.7-15.2c-3.5,9.4-13.8,15.2-23.4,15.2c-18.8,0-29.4-9.4-29.4-28.6
		c0-6.7,3.6-14.4,6.9-20.4l42.2-16.9v-4c0-5.2-6-7.7-10.4-7.7c-8.8,0-16.3,3.5-23.2,8.8l-9.8-15.7c9-8.6,23-15.4,35.7-15.4
		c18.2,0,33.6,8.4,33.6,28.4V438c0,1.7,0,5,2.3,5c1,0,1.9-0.4,2.7-0.8l4.2,13.1C538.8,457.6,533.8,459.3,528.6,459.3z M487,420.7
		c-1,2.9-1.7,6.5-1.7,9.6c0,4,3.6,6.7,7.5,6.7c11.1,0,16.1-10.2,16.1-20.2v-5.2L487,420.7z"/>
	<path class="st0" d="M598.7,459.3c-33.2,0-43.4-26.9-43.4-51.1v-72.8h28.6v72.8c0,18.4,4.4,26.5,14.8,26.5s14.8-8.1,14.8-26.5
		v-72.8h28.6v72.8C642.1,432.4,631.9,459.3,598.7,459.3z"/>
	<path class="st0" d="M679.4,452.6V490h-28V362.4h28l-0.2,6.9c0,0,9.6-9.8,20-9.8c25,0,35.9,26.7,35.9,46.7
		c0,21.5-6.7,53.2-39.9,53.2C686.1,459.3,679.4,452.6,679.4,452.6z M679.4,390.4v20.5c0,10.8,1.2,25.9,15,25.9
		c12.7,0,12.3-20.9,12.3-29.2c0-8.4-0.2-25.2-12.3-25.2C686.5,382.5,683.6,386.8,679.4,390.4z"/>
</g>
</svg>