<svg width="461" height="407" viewBox="0 0 461 407" fill="none" xmlns="http://www.w3.org/2000/svg">
<g clip-path="url(#clip0)">
<rect width="461" height="407" fill="#466AAF"/>
<path opacity="0.1" d="M399.491 407C414.123 407 425.986 403.053 425.986 398.185C425.986 393.316 414.123 389.369 399.491 389.369C384.858 389.369 372.996 393.316 372.996 398.185C372.996 403.053 384.858 407 399.491 407Z" fill="white"/>
<path opacity="0.1" d="M443.187 360.552C433.106 371.033 418.762 375.37 404.889 378.11L402.554 378.556C388.065 381.265 373.414 382.707 358.714 383.584C350.848 384.061 342.983 384.398 335.117 384.699L328.953 384.928C320.949 385.225 312.931 385.517 304.897 385.805C297.031 386.085 289.165 386.348 281.3 386.593C271.226 386.901 261.153 387.157 251.079 387.361C243.214 387.517 235.348 387.624 227.482 387.683C217.406 387.755 207.333 387.731 197.262 387.61C189.391 387.51 181.525 387.337 173.665 387.091C163.586 386.766 153.512 386.291 143.444 385.664C136.611 385.246 129.782 384.743 122.956 384.155L119.847 383.88C90.5501 381.233 60.727 376.486 35.0892 361.48L34.3978 361.07C34.0542 360.868 33.7106 360.666 33.367 360.453C28.6597 357.632 24.1507 354.319 19.8878 350.548C12.3079 343.772 6.04848 335.501 2.74078 325.689C-2.44225 310.3 0.298295 293.001 6.21821 277.954C12.1381 262.907 21.0263 249.323 28.7139 235.153C30.9659 231.002 33.1021 226.696 35.0892 222.28C47.5086 194.589 53.6686 162.544 40.6489 135.859C38.9304 132.456 37.0748 129.166 35.0892 126C31.914 120.812 28.6849 115.623 26.5032 109.879C21.4154 96.5134 22.5083 81.482 24.363 67.2029C26.8468 48.2178 31.4006 27.7695 45.6333 15.9083C60.3999 3.59052 81.3597 4.21315 99.6866 8.64423C128.181 15.488 154.481 29.8138 181.03 42.7334C207.578 55.6531 235.389 67.4675 264.579 68.7388C270.849 69.0077 277.127 68.7216 283.365 67.8826C291.682 66.8115 299.885 64.6463 307.84 61.4228C319.328 56.6804 329.781 49.5461 337.531 39.6306C354.152 18.4351 385.387 16.8319 407.907 29.6322C429.397 41.8462 443.294 67.6958 442.268 93.5144C441.1 122.254 423.928 145.883 408.193 170.119C406.284 173.056 404.401 176.003 402.567 178.971C401.543 180.628 400.538 182.288 399.553 183.952C397.827 186.889 396.158 189.841 394.585 192.83C386.546 208.152 380.862 226.556 386.397 243.097C389.502 252.359 395.426 259.425 402.567 265.595C418.567 279.412 440.653 288.71 450.589 308.053C459.15 324.724 455.979 347.227 443.187 360.552Z" fill="white"/>
<g opacity="0.1">
<path opacity="0.1" d="M229.966 285.036C229.983 285.524 230.012 286.002 230.053 286.469C233.274 284.86 236.435 283.131 239.537 281.28C241.193 281.005 242.732 280.061 243.921 278.592C244.828 278.021 245.73 277.425 246.625 276.828C246.422 276.291 246.193 275.771 245.937 275.272C244.194 271.821 241.545 269.663 238.626 269.782C235.708 269.901 233.183 272.273 231.622 275.847C230.424 278.67 229.853 281.843 229.966 285.036Z" fill="#3F3D56"/>
<path opacity="0.1" d="M229.49 266.892C229.552 270.071 230.288 273.173 231.622 275.879C233.369 279.319 236.018 281.477 238.937 281.358C239.14 281.358 239.351 281.321 239.537 281.301C241.193 281.025 242.732 280.082 243.921 278.613C244.729 277.65 245.409 276.533 245.937 275.303C247.105 272.478 247.675 269.325 247.593 266.145C247.51 262.966 246.778 259.866 245.465 257.142C243.718 253.692 241.069 251.534 238.15 251.653C235.232 251.772 232.711 254.143 231.15 257.718C229.953 260.536 229.38 263.703 229.49 266.892Z" fill="#3F3D56"/>
<path opacity="0.1" d="M238.459 263.214C243.457 263.009 247.334 256.195 247.119 247.995C246.905 239.795 242.679 233.315 237.682 233.52C232.684 233.726 228.807 240.54 229.022 248.74C229.236 256.939 233.462 263.42 238.459 263.214Z" fill="#3F3D56"/>
<path opacity="0.1" d="M237.985 245.073C242.982 244.868 246.859 238.054 246.645 229.854C246.43 221.654 242.205 215.174 237.207 215.379C232.209 215.585 228.332 222.399 228.547 230.598C228.762 238.798 232.987 245.279 237.985 245.073Z" fill="#3F3D56"/>
<path opacity="0.1" d="M237.51 226.927C242.508 226.721 246.385 219.907 246.17 211.707C245.955 203.508 241.73 197.027 236.732 197.233C231.735 197.438 227.858 204.252 228.072 212.452C228.287 220.652 232.512 227.132 237.51 226.927Z" fill="#3F3D56"/>
<path opacity="0.1" d="M267.758 86.5305C268.943 84.5077 270.013 82.3839 270.962 80.1745L247.059 76.2622L272.776 75.4424C275.066 68.6163 276.221 61.2761 276.17 53.8712C276.119 46.4662 274.862 39.1522 272.478 32.377L238.569 56.2186L269.617 25.6058C266.456 19.303 262.296 13.8813 257.394 9.67688C252.492 5.47247 246.953 2.57501 241.121 1.16418C235.289 -0.246656 229.288 -0.140781 223.49 1.47524C217.692 3.09126 212.22 6.18296 207.415 10.5586C202.61 14.9343 198.573 20.5006 195.554 26.9125C192.536 33.3243 190.601 40.4449 189.869 47.8327C189.137 55.2205 189.624 62.718 191.3 69.8603C192.975 77.0026 195.803 83.6373 199.609 89.3531C197.764 92.5024 196.194 95.891 194.927 99.4605L226.311 118.285L193.043 105.801C190.957 114.456 190.626 123.626 192.08 132.482C193.533 141.338 196.726 149.6 201.368 156.52C196.552 164.74 193.679 174.493 193.076 184.664C192.474 194.835 194.168 205.013 197.963 214.034C201.759 223.056 207.503 230.556 214.54 235.679C221.576 240.801 229.62 243.339 237.753 243.001C245.886 242.664 253.779 239.465 260.529 233.77C267.28 228.075 272.616 220.115 275.926 210.798C279.237 201.482 280.39 191.186 279.252 181.087C278.114 170.989 274.732 161.495 269.493 153.692C275.252 143.873 278.211 131.915 277.897 119.735C277.582 107.555 274.012 95.8616 267.758 86.5305Z" fill="white"/>
<path opacity="0.1" d="M191.213 123.297C191.516 135.484 195.094 147.186 201.368 156.504C196.551 164.724 193.676 174.476 193.072 184.647C192.469 194.818 194.16 204.996 197.955 214.018C201.749 223.04 207.492 230.543 214.528 235.667C221.563 240.791 229.607 243.33 237.74 242.994C245.873 242.659 253.767 239.461 260.518 233.768C267.269 228.075 272.606 220.115 275.918 210.8C279.231 201.484 280.385 191.188 279.248 181.089C278.112 170.991 274.731 161.496 269.493 153.692C275.061 144.218 191.056 117.2 191.213 123.297Z" fill="black"/>
</g>
<g opacity="0.1">
<path opacity="0.1" d="M135.032 380.616C135.032 380.958 135.003 381.301 134.97 381.654C132.679 380.512 130.429 379.289 128.218 377.985C127.04 377.792 125.944 377.124 125.097 376.081C124.451 375.669 123.809 375.251 123.172 374.825C123.315 374.446 123.479 374.079 123.66 373.725C124.902 371.266 126.781 369.73 128.86 369.813C130.938 369.896 132.734 371.577 133.827 374.12C134.683 376.112 135.099 378.355 135.032 380.616Z" fill="#3F3D56"/>
<path opacity="0.1" d="M135.355 367.701C135.314 369.964 134.794 372.172 133.848 374.099C132.606 376.548 130.722 378.089 128.648 378.006L128.234 377.965C127.057 377.772 125.961 377.103 125.113 376.06C124.537 375.376 124.052 374.581 123.677 373.705C122.846 371.697 122.44 369.455 122.497 367.195C122.553 364.934 123.07 362.729 123.999 360.79C125.241 358.331 127.125 356.795 129.199 356.878C131.273 356.961 133.074 358.642 134.188 361.185C135.033 363.188 135.436 365.438 135.355 367.701Z" fill="#3F3D56"/>
<path opacity="0.1" d="M135.689 354.811C135.836 348.977 133.073 344.133 129.517 343.992C125.962 343.851 122.96 348.467 122.813 354.301C122.666 360.135 125.429 364.979 128.985 365.12C132.54 365.261 135.542 360.645 135.689 354.811Z" fill="#3F3D56"/>
<path opacity="0.1" d="M136.011 341.899C136.158 336.064 133.395 331.22 129.839 331.08C126.283 330.939 123.282 335.554 123.134 341.389C122.987 347.223 125.751 352.067 129.306 352.207C132.862 352.348 135.864 347.733 136.011 341.899Z" fill="#3F3D56"/>
<path opacity="0.1" d="M136.337 328.981C136.484 323.147 133.721 318.303 130.165 318.162C126.609 318.021 123.607 322.637 123.46 328.471C123.313 334.305 126.077 339.149 129.632 339.29C133.188 339.431 136.19 334.815 136.337 328.981Z" fill="#3F3D56"/>
<path opacity="0.1" d="M108.012 239.392C107.167 237.953 106.403 236.443 105.722 234.873L122.729 232.04L104.427 231.521C102.791 226.665 101.963 221.441 101.995 216.17C102.026 210.899 102.915 205.692 104.609 200.867L128.756 217.797L106.641 196.031C108.879 191.525 111.833 187.644 115.32 184.631C118.806 181.618 122.75 179.536 126.905 178.516C131.061 177.495 135.34 177.558 139.476 178.699C143.612 179.841 147.516 182.038 150.945 185.152C154.374 188.267 157.255 192.232 159.409 196.803C161.562 201.373 162.942 206.45 163.463 211.717C163.983 216.985 163.633 222.33 162.434 227.421C161.235 232.511 159.212 237.238 156.493 241.307C157.81 243.546 158.93 245.957 159.834 248.498L137.512 261.926L161.179 253.002C162.669 259.161 162.91 265.687 161.883 271.992C160.855 278.297 158.59 284.182 155.292 289.115C158.727 294.958 160.78 301.896 161.217 309.133C161.654 316.37 160.458 323.616 157.765 330.041C155.071 336.466 150.99 341.812 145.987 345.467C140.984 349.122 135.261 350.939 129.473 350.71C123.685 350.48 118.065 348.214 113.256 344.171C108.447 340.127 104.643 334.47 102.278 327.844C99.914 321.218 99.0848 313.893 99.8856 306.704C100.686 299.516 103.085 292.755 106.807 287.195C102.703 280.212 100.59 271.703 100.809 263.035C101.027 254.366 103.564 246.042 108.012 239.397V239.392Z" fill="white"/>
<path opacity="0.1" d="M162.491 265.47C162.284 274.143 159.747 282.474 155.292 289.115C158.727 294.958 160.78 301.896 161.217 309.133C161.654 316.37 160.458 323.616 157.765 330.041C155.071 336.466 150.99 341.812 145.987 345.467C140.984 349.122 135.261 350.939 129.473 350.71C123.685 350.48 118.065 348.214 113.256 344.171C108.447 340.127 104.643 334.47 102.278 327.844C99.914 321.218 99.0848 313.893 99.8856 306.704C100.686 299.516 103.085 292.755 106.807 287.195C102.837 280.45 162.607 261.127 162.491 265.47Z" fill="black"/>
</g>
<g opacity="0.1">
<path opacity="0.1" d="M350.62 313.138C350.62 313.486 350.592 313.823 350.563 314.176C348.269 313.034 346.018 311.811 343.811 310.507C342.632 310.314 341.535 309.645 340.685 308.603C340.043 308.193 339.398 307.773 338.76 307.348C338.905 306.969 339.069 306.602 339.249 306.248C340.49 303.788 342.37 302.252 344.448 302.335C346.526 302.418 348.323 304.099 349.416 306.642C350.271 308.634 350.687 310.877 350.62 313.138Z" fill="#3F3D56"/>
<path opacity="0.1" d="M350.968 300.224C350.926 302.486 350.405 304.694 349.457 306.621C348.215 309.07 346.336 310.611 344.258 310.528L343.844 310.487C342.665 310.293 341.568 309.625 340.718 308.582C340.144 307.896 339.659 307.101 339.282 306.227C338.451 304.219 338.045 301.977 338.102 299.717C338.158 297.456 338.675 295.251 339.604 293.312C340.846 290.858 342.73 289.317 344.804 289.4C346.878 289.483 348.683 291.164 349.793 293.707C350.641 295.709 351.047 297.959 350.968 300.224Z" fill="#3F3D56"/>
<path opacity="0.1" d="M351.292 287.329C351.439 281.495 348.675 276.651 345.12 276.51C341.564 276.369 338.562 280.985 338.415 286.819C338.268 292.653 341.031 297.497 344.587 297.638C348.143 297.779 351.145 293.163 351.292 287.329Z" fill="#3F3D56"/>
<path opacity="0.1" d="M351.618 274.417C351.765 268.582 349.002 263.738 345.446 263.598C341.89 263.457 338.888 268.072 338.741 273.907C338.594 279.741 341.357 284.585 344.913 284.725C348.469 284.866 351.471 280.251 351.618 274.417Z" fill="#3F3D56"/>
<path opacity="0.1" d="M351.943 261.505C352.091 255.67 349.327 250.826 345.772 250.686C342.216 250.545 339.214 255.16 339.067 260.995C338.92 266.829 341.683 271.673 345.239 271.813C348.795 271.954 351.796 267.339 351.943 261.505Z" fill="#3F3D56"/>
<path opacity="0.1" d="M323.6 171.914C322.755 170.477 321.991 168.967 321.315 167.395L338.321 164.588L320.019 164.033C318.384 159.177 317.557 153.953 317.587 148.683C317.618 143.412 318.506 138.204 320.197 133.379L344.345 150.309L322.23 128.553C324.464 124.036 327.417 120.144 330.904 117.121C334.391 114.098 338.338 112.007 342.499 110.981C346.659 109.954 350.944 110.013 355.085 111.154C359.227 112.294 363.136 114.492 366.57 117.611C370.004 120.729 372.888 124.701 375.042 129.279C377.197 133.856 378.576 138.941 379.093 144.216C379.61 149.491 379.254 154.843 378.048 159.938C376.841 165.033 374.81 169.761 372.081 173.829C373.397 176.068 374.516 178.48 375.418 181.02L353.096 194.448L376.763 185.524C378.255 191.681 378.498 198.208 377.47 204.513C376.442 210.817 374.176 216.701 370.877 221.632C374.312 227.474 376.365 234.411 376.803 241.648C377.241 248.884 376.045 256.13 373.352 262.555C370.659 268.98 366.578 274.325 361.576 277.98C356.573 281.635 350.851 283.452 345.063 283.223C339.275 282.993 333.656 280.728 328.847 276.684C324.039 272.64 320.235 266.983 317.871 260.357C315.508 253.732 314.679 246.407 315.481 239.219C316.282 232.031 318.681 225.271 322.404 219.712C318.3 212.729 316.187 204.22 316.406 195.552C316.624 186.883 319.161 178.558 323.608 171.914H323.6Z" fill="white"/>
<path opacity="0.1" d="M378.084 197.992C377.877 206.664 375.339 214.994 370.881 221.632C374.315 227.475 376.368 234.411 376.806 241.647C377.243 248.884 376.047 256.128 373.354 262.553C370.661 268.978 366.58 274.323 361.578 277.977C356.575 281.632 350.853 283.449 345.066 283.219C339.278 282.99 333.659 280.724 328.851 276.681C324.042 272.638 320.239 266.981 317.875 260.356C315.511 253.731 314.682 246.406 315.483 239.219C316.284 232.031 318.682 225.271 322.404 219.712C318.43 212.972 378.192 193.644 378.084 197.992Z" fill="black"/>
</g>
<path d="M80.1052 395.294C93.1396 395.294 103.706 392.748 103.706 389.608C103.706 386.467 93.1396 383.921 80.1052 383.921C67.0707 383.921 56.5042 386.467 56.5042 389.608C56.5042 392.748 67.0707 395.294 80.1052 395.294Z" fill="white"/>
<path d="M79.7118 391.699C81.23 391.699 82.4607 389.68 82.4607 387.19C82.4607 384.7 81.23 382.681 79.7118 382.681C78.1937 382.681 76.963 384.7 76.963 387.19C76.963 389.68 78.1937 391.699 79.7118 391.699Z" fill="#3F3D56"/>
<path d="M79.7118 386.189C81.23 386.189 82.4607 384.17 82.4607 381.68C82.4607 379.189 81.23 377.171 79.7118 377.171C78.1937 377.171 76.963 379.189 76.963 381.68C76.963 384.17 78.1937 386.189 79.7118 386.189Z" fill="#3F3D56"/>
<path d="M79.7118 380.678C81.23 380.678 82.4607 378.66 82.4607 376.169C82.4607 373.679 81.23 371.66 79.7118 371.66C78.1937 371.66 76.963 373.679 76.963 376.169C76.963 378.66 78.1937 380.678 79.7118 380.678Z" fill="#3F3D56"/>
<path d="M79.7118 375.168C81.23 375.168 82.4607 373.149 82.4607 370.659C82.4607 368.169 81.23 366.15 79.7118 366.15C78.1937 366.15 76.963 368.169 76.963 370.659C76.963 373.149 78.1937 375.168 79.7118 375.168Z" fill="#3F3D56"/>
<path d="M79.7118 369.658C81.23 369.658 82.4607 367.639 82.4607 365.149C82.4607 362.658 81.23 360.64 79.7118 360.64C78.1937 360.64 76.963 362.658 76.963 365.149C76.963 367.639 78.1937 369.658 79.7118 369.658Z" fill="#3F3D56"/>
<path d="M79.7118 364.147C81.23 364.147 82.4607 362.129 82.4607 359.638C82.4607 357.148 81.23 355.129 79.7118 355.129C78.1937 355.129 76.963 357.148 76.963 359.638C76.963 362.129 78.1937 364.147 79.7118 364.147Z" fill="#3F3D56"/>
<path d="M79.7118 358.637C81.23 358.637 82.4607 356.618 82.4607 354.128C82.4607 351.638 81.23 349.619 79.7118 349.619C78.1937 349.619 76.963 351.638 76.963 354.128C76.963 356.618 78.1937 358.637 79.7118 358.637Z" fill="#3F3D56"/>
<path d="M89.9993 316.417C90.374 315.817 90.7156 315.186 91.0218 314.529L83.802 313.039L91.6097 313.117C92.3585 311.074 92.7671 308.86 92.8105 306.612C92.8539 304.364 92.5312 302.129 91.8622 300.042L81.3844 306.855L91.0467 297.935C90.1407 295.976 88.9227 294.272 87.4685 292.928C86.0142 291.584 84.3549 290.63 82.5937 290.125C80.8325 289.62 79.0072 289.574 77.2315 289.992C75.4557 290.409 73.7674 291.28 72.2718 292.55C70.7761 293.82 69.5051 295.463 68.5378 297.375C67.5705 299.288 66.9277 301.43 66.6494 303.667C66.371 305.904 66.4631 308.19 66.9199 310.38C67.3767 312.571 68.1884 314.621 69.3044 316.402C68.7206 317.335 68.2182 318.344 67.8058 319.411L77.1784 325.513L67.1849 321.31C66.4829 323.91 66.309 326.688 66.6791 329.393C67.0492 332.098 67.9515 334.645 69.3044 336.803C67.7778 339.237 66.8284 342.161 66.5646 345.239C66.3009 348.317 66.7335 351.427 67.8131 354.211C68.8926 356.996 70.5755 359.344 72.6694 360.987C74.7633 362.629 77.1837 363.5 79.654 363.5C82.1242 363.5 84.5446 362.629 86.6385 360.987C88.7324 359.344 90.4153 356.996 91.4948 354.211C92.5744 351.427 93.007 348.317 92.7433 345.239C92.4796 342.161 91.5301 339.237 90.0035 336.803C91.8272 333.894 92.8186 330.302 92.8186 326.602C92.8186 322.903 91.8272 319.311 90.0035 316.402L89.9993 316.417Z" fill="white"/>
<path opacity="0.1" d="M66.4893 326.618C66.4845 330.319 67.4764 333.913 69.3044 336.819C67.7777 339.253 66.8283 342.176 66.5646 345.254C66.3008 348.333 66.7335 351.442 67.813 354.227C68.8926 357.012 70.5755 359.359 72.6694 361.002C74.7633 362.645 77.1837 363.516 79.6539 363.516C82.1241 363.516 84.5445 362.645 86.6384 361.002C88.7323 359.359 90.4152 357.012 91.4948 354.227C92.5743 351.442 93.007 348.333 92.7432 345.254C92.4795 342.176 91.53 339.253 90.0034 336.819C91.7628 334.012 66.4893 324.766 66.4893 326.618Z" fill="black"/>
<path d="M143.444 268.36V385.623C136.611 385.204 129.781 384.701 122.956 384.113L119.847 383.838V268.36C119.847 267.759 119.942 267.164 120.125 266.609C120.309 266.054 120.578 265.549 120.917 265.124C121.256 264.699 121.658 264.362 122.101 264.132C122.544 263.902 123.019 263.784 123.499 263.784H139.793C140.272 263.784 140.747 263.902 141.19 264.132C141.633 264.362 142.036 264.699 142.375 265.124C142.714 265.549 142.983 266.054 143.166 266.609C143.35 267.164 143.444 267.759 143.444 268.36Z" fill="#3F3D56"/>
<path d="M173.665 387.081V190.012C173.665 188.798 174.049 187.634 174.734 186.776C175.419 185.918 176.348 185.436 177.316 185.436H193.61C194.09 185.436 194.565 185.554 195.008 185.784C195.451 186.014 195.853 186.351 196.192 186.776C196.531 187.201 196.8 187.706 196.984 188.261C197.167 188.816 197.262 189.411 197.262 190.012V387.595L173.665 387.081Z" fill="#3F3D56"/>
<path d="M227.482 387.698V231.002C227.482 229.789 227.867 228.625 228.551 227.766C229.236 226.908 230.165 226.426 231.133 226.426H247.428C248.396 226.426 249.325 226.908 250.01 227.766C250.694 228.625 251.079 229.789 251.079 231.002V387.361L227.482 387.698Z" fill="#3F3D56"/>
<path d="M304.896 114.777V385.805C297.031 386.085 289.165 386.348 281.299 386.593V114.777C281.299 113.564 281.684 112.4 282.369 111.541C283.054 110.683 283.982 110.201 284.951 110.201H301.245C302.213 110.201 303.142 110.683 303.827 111.541C304.512 112.4 304.896 113.564 304.896 114.777Z" fill="#3F3D56"/>
<path d="M358.714 169.258V383.548C350.848 384.025 342.983 384.362 335.117 384.663V169.258C335.117 168.044 335.502 166.88 336.186 166.022C336.871 165.164 337.8 164.681 338.768 164.681H355.062C356.031 164.681 356.96 165.164 357.644 166.022C358.329 166.88 358.714 168.044 358.714 169.258Z" fill="#3F3D56"/>
<path d="M131.853 199.974L185.67 124.739L239.487 162.616L293.305 46.3914L347.122 101.91" stroke="#3F3D56" stroke-width="7" stroke-miterlimit="10" stroke-linecap="round"/>
<path d="M131.646 214.502C138.047 214.502 143.237 207.998 143.237 199.974C143.237 191.951 138.047 185.446 131.646 185.446C125.244 185.446 120.054 191.951 120.054 199.974C120.054 207.998 125.244 214.502 131.646 214.502Z" fill="white"/>
<path d="M185.463 139.268C191.865 139.268 197.055 132.763 197.055 124.739C197.055 116.716 191.865 110.211 185.463 110.211C179.061 110.211 173.872 116.716 173.872 124.739C173.872 132.763 179.061 139.268 185.463 139.268Z" fill="white"/>
<path d="M239.281 177.144C245.682 177.144 250.872 170.64 250.872 162.616C250.872 154.593 245.682 148.088 239.281 148.088C232.879 148.088 227.689 154.593 227.689 162.616C227.689 170.64 232.879 177.144 239.281 177.144Z" fill="white"/>
<path d="M293.098 60.9195C299.5 60.9195 304.689 54.415 304.689 46.3914C304.689 38.3677 299.5 31.8633 293.098 31.8633C286.696 31.8633 281.506 38.3677 281.506 46.3914C281.506 54.415 286.696 60.9195 293.098 60.9195Z" fill="white"/>
<path d="M396.593 184.409C402.995 184.409 408.184 177.904 408.184 169.88C408.184 161.857 402.995 155.352 396.593 155.352C390.191 155.352 385.002 161.857 385.002 169.88C385.002 177.904 390.191 184.409 396.593 184.409Z" fill="white"/>
<path opacity="0.1" d="M96.7389 376.574C101.01 376.574 104.472 375.84 104.472 374.934C104.472 374.029 101.01 373.295 96.7389 373.295C92.468 373.295 89.0057 374.029 89.0057 374.934C89.0057 375.84 92.468 376.574 96.7389 376.574Z" fill="white"/>
<path d="M91.5475 367.323C91.5475 367.323 95.9564 367.151 97.2853 365.963C98.6142 364.775 104.07 363.369 104.402 365.263C104.733 367.157 111.025 374.727 106.058 374.779C101.09 374.831 94.4868 373.803 93.1621 372.791C91.8373 371.78 91.5475 367.323 91.5475 367.323Z" fill="#A8A8A8"/>
<path opacity="0.2" d="M106.136 374.115C101.168 374.166 94.5696 373.144 93.2407 372.133C92.2306 371.359 91.8291 368.594 91.6924 367.317H91.5475C91.5475 367.317 91.8249 371.775 93.1538 372.786C94.4827 373.798 101.069 374.825 106.049 374.774C107.486 374.774 107.983 374.12 107.954 373.17C107.755 373.746 107.208 374.104 106.136 374.115Z" fill="black"/>
<path opacity="0.1" d="M440.392 391.849C448.237 391.849 454.596 390.502 454.596 388.84C454.596 387.178 448.237 385.83 440.392 385.83C432.548 385.83 426.188 387.178 426.188 388.84C426.188 390.502 432.548 391.849 440.392 391.849Z" fill="white"/>
<path d="M430.866 374.857C430.866 374.857 438.968 374.545 441.411 372.366C443.853 370.187 453.871 367.587 454.476 371.079C455.08 374.571 466.655 388.461 457.506 388.555C448.357 388.648 436.252 386.77 433.814 384.923C431.376 383.075 430.866 374.857 430.866 374.857Z" fill="#A8A8A8"/>
<path opacity="0.2" d="M457.659 387.34C448.51 387.434 436.405 385.555 433.967 383.708C432.113 382.292 431.371 377.207 431.123 374.888H430.854C430.854 374.888 431.367 383.081 433.802 384.938C436.236 386.796 448.349 388.679 457.494 388.57C460.135 388.57 461.046 387.366 460.996 385.623C460.628 386.661 459.622 387.32 457.659 387.34Z" fill="black"/>
<path d="M351.718 178.789C351.794 179.698 352.082 180.559 352.545 181.264C353.146 182.115 354.044 182.504 354.851 183.013C356.941 184.353 358.536 186.652 359.306 189.431C360.684 194.474 360.862 199.808 362.618 204.675C364.373 209.542 366.435 214.217 367.95 219.203C368.811 222.031 369.498 224.973 370.761 227.547C371.372 228.812 372.152 229.937 373.066 230.873C372.971 232.699 372.934 234.505 372.942 236.331C373.222 236.324 373.499 236.406 373.746 236.569C373.994 236.733 374.204 236.972 374.358 237.265C374.664 237.856 374.875 238.517 374.979 239.211C375.546 242.153 374.847 245.286 375.356 248.244C376.755 256.471 376.325 265.021 374.114 272.963C373.547 274.976 372.835 281.638 373.439 283.636C375.691 283.35 377.687 285.083 379.794 286.23C379.964 287.795 379.862 289.388 379.496 290.9C378.738 293.634 378.742 296.607 378.755 299.497L378.858 320.905C378.858 323.619 378.887 326.369 379.429 329C380.046 331.962 381.342 334.982 381.301 338.043C381.189 344.633 383.673 350.911 383.474 357.449C383.437 358.704 383.3 359.95 383.205 361.195C382.96 364.512 383.027 367.854 383.404 371.152C384.157 377.721 386.148 384.181 385.652 390.786C385.618 391.232 385.498 391.823 385.163 391.995C385.577 392.581 386.016 393.162 386.463 393.717C386.372 393.906 386.249 394.068 386.103 394.189C385.614 394.51 385.073 394.687 384.521 394.708C383.874 394.729 383.246 394.985 382.712 395.445C382.324 395.911 382.061 396.517 381.959 397.178C381.812 397.831 381.78 398.517 381.865 399.187C381.951 399.857 382.153 400.496 382.456 401.059C382.825 401.642 383.309 402.096 383.859 402.377C385.772 403.415 387.966 402.662 389.961 401.905L397.777 398.937C398.254 398.813 398.694 398.525 399.048 398.107C399.21 397.867 399.317 397.576 399.358 397.266C401.085 397.785 402.981 397.147 404.74 396.488L412.556 393.515C413.034 393.393 413.474 393.105 413.827 392.685C413.968 392.47 414.069 392.22 414.124 391.951C414.179 391.682 414.187 391.401 414.146 391.128C414.204 391.097 414.262 391.076 414.32 391.04C414.916 390.703 415.562 390.044 415.417 389.25C415.313 388.731 414.899 388.43 414.721 387.953C414.637 387.642 414.62 387.31 414.671 386.988C414.722 386.667 414.839 386.368 415.011 386.121C415.317 385.602 415.731 385.172 416.013 384.627C416.915 382.894 416.303 380.616 415.963 378.587C415.23 374.255 415.909 369.73 415.446 365.341C415.288 363.862 415.003 362.409 414.775 360.941C414.293 357.47 413.973 353.967 413.819 350.449C413.521 345.427 412.407 340.477 413.045 335.496C413.354 332.572 413.486 329.624 413.438 326.675C413.483 324.797 413.418 322.917 413.243 321.051C413.082 319.66 412.796 318.295 412.672 316.9C412.571 315.331 412.549 313.756 412.606 312.183C412.663 308.678 412.405 305.176 411.836 301.744C411.008 297.027 409.451 292.513 408.789 287.786C409.012 287.849 409.236 287.911 409.451 287.984C409.476 284.352 406.938 276.455 405.999 273.009C405.861 272.587 405.777 272.141 405.75 271.686C405.807 271.087 405.894 270.492 406.011 269.906C406.131 268.651 405.597 267.457 405.452 266.202C405.396 265.319 405.447 264.43 405.605 263.566C406.272 258.922 407.1 254.315 407.928 249.712C408.289 248.046 408.413 246.312 408.296 244.591C408.2 243.679 408.261 242.752 408.475 241.872C408.69 240.992 409.052 240.18 409.538 239.491C409.902 239.07 410.212 238.582 410.457 238.043C410.595 237.581 410.657 237.089 410.639 236.596C410.623 234.461 410.372 232.34 409.894 230.291C410.623 228.636 410.892 226.602 411.103 224.683C411.567 220.443 412.03 216.184 412.014 211.903C412.051 209.619 411.799 207.343 411.269 205.158C410.881 203.808 410.408 202.5 409.853 201.246C407.675 195.989 405.593 190.458 402.844 185.643C402.016 184.18 402.538 182.162 402.596 180.356C402.658 178.177 401.971 176.086 401.296 174.083C400.952 172.851 400.423 171.711 399.739 170.726C399.508 170.407 399.227 170.15 398.914 169.972C398.601 169.794 398.262 169.697 397.918 169.688C397.528 169.748 397.153 169.912 396.818 170.169C396.483 170.426 396.196 170.77 395.976 171.178C395.476 172.032 395.115 173.003 394.915 174.033C394.716 175.064 394.681 176.133 394.813 177.181C395.088 179.277 395.817 181.239 396.92 182.852C397.453 183.664 398.063 184.39 398.737 185.016C399.422 187.741 400.112 190.465 400.807 193.188C401.9 197.52 402.993 201.873 404.533 205.972C404.984 207.161 405.481 208.37 405.535 209.682C405.593 211.099 405.121 212.448 404.744 213.781C403.951 216.561 403.501 219.476 403.411 222.425C403.29 222.493 403.174 222.573 403.064 222.664C401.759 223.733 401.35 226.063 399.992 227.017C399.201 227.573 398.241 227.536 397.355 227.791C397.276 227.791 397.197 227.842 397.115 227.874C397.081 227.666 397.048 227.464 397.028 227.251C397.015 227.118 397.015 226.984 397.028 226.851C399.139 225.397 400.912 223.28 402.173 220.708C402.439 220.232 402.645 219.707 402.782 219.151C402.894 218.486 402.915 217.802 402.844 217.128C402.775 214.878 402.518 212.643 402.078 210.461C401.637 208.267 400.67 206.295 399.309 204.81C398.63 204.125 397.847 203.612 397.173 202.921C395.856 201.588 394.954 199.616 393.447 198.625C392.488 198.04 391.394 197.902 390.361 198.237C389.328 198.572 388.425 199.357 387.812 200.452C387.612 200.958 387.33 201.407 386.985 201.77C386.721 201.926 386.464 202.099 386.215 202.288C385.759 202.745 385.734 203.622 385.883 204.333C386.166 205.793 386.324 207.287 386.355 208.79C385.019 210.755 384.283 213.251 384.279 215.833C384.274 218.415 385.001 220.915 386.33 222.887C386.33 223.852 386.33 224.817 386.301 225.783C386.301 225.964 386.301 226.151 386.272 226.333C385.795 226.124 385.368 225.767 385.031 225.295C384.567 224.568 384.484 223.5 383.917 222.903C383.509 222.566 383.044 222.353 382.559 222.28C381.353 221.937 380.223 221.266 379.247 220.314C378.481 219.572 377.687 218.622 376.792 218.404C375.249 214.777 373.448 211.331 371.411 208.11C370.894 207.348 370.423 206.538 370.003 205.687C369.113 203.741 368.848 201.453 368.285 199.321C366.712 193.343 362.787 188.549 361.831 182.364C361.483 180.123 360.349 178.172 359.571 176.107C359.045 174.711 358.465 173.237 357.414 172.438C356.06 171.401 354.189 171.878 353.063 173.274C352.518 174.004 352.113 174.88 351.88 175.836C351.647 176.792 351.591 177.802 351.718 178.789ZM400.869 388.767C400.38 389.087 399.84 389.265 399.288 389.286C399.01 389.322 398.733 389.378 398.46 389.452C398.357 388.363 398.299 387.257 398.232 386.183C398.013 382.66 397.574 379.163 397.139 375.671C396.684 372.039 396.469 368.065 395.484 364.578C393.898 358.902 392.292 353.054 392.495 347.04C392.54 345.676 392.677 344.322 392.735 342.962C392.867 339.595 392.49 336.155 393.149 332.881C393.443 331.392 393.944 329.97 394.134 328.455C394.255 327.087 394.269 325.707 394.175 324.335C393.994 319.574 394.31 314.803 395.115 310.144C395.885 311.405 396.138 313.034 396.357 314.596L397.909 325.15C398.833 331.412 399.648 338.054 402.095 343.626C401.751 345.634 401.412 347.777 401.979 349.697C402.223 350.527 402.625 351.254 402.873 352.094C403.287 353.49 403.229 355.026 403.353 356.504C403.622 359.618 404.649 362.679 403.896 365.683C403.121 368.781 402.617 371.975 402.393 375.209C402.352 376.109 402.269 377.005 402.144 377.892C402.012 378.691 401.797 379.448 401.677 380.268C401.511 381.419 401.552 382.601 401.797 383.729C401.983 384.354 402.097 385.009 402.136 385.675C402.136 386.339 401.486 386.816 400.965 386.92C401.118 387.169 401.283 387.408 401.453 387.641C401.353 388.082 401.15 388.474 400.869 388.767Z" fill="url(#paint0_linear)"/>
<path d="M384.521 394.755C383.874 394.776 383.246 395.032 382.712 395.492C382.323 395.953 382.059 396.555 381.959 397.214C381.812 397.863 381.78 398.543 381.866 399.208C381.952 399.874 382.153 400.507 382.456 401.064C382.825 401.646 383.309 402.098 383.859 402.377C385.772 403.415 387.966 402.657 389.961 401.905L397.777 398.958C398.253 398.836 398.693 398.55 399.048 398.133C399.263 397.769 399.382 397.331 399.388 396.879C399.394 396.426 399.287 395.983 399.081 395.611C398.661 394.879 398.088 394.306 397.425 393.956C394.995 392.472 392.255 392.135 389.584 392.072C388.591 392.072 387.61 391.771 386.935 392.731C386.579 393.25 386.645 393.805 386.107 394.246C385.615 394.561 385.073 394.735 384.521 394.755Z" fill="#3F3D56"/>
<path d="M399.288 389.369C398.641 389.393 398.013 389.648 397.479 390.106C397.091 390.568 396.827 391.17 396.725 391.829C396.579 392.478 396.547 393.159 396.633 393.825C396.719 394.491 396.92 395.125 397.222 395.684C397.594 396.262 398.077 396.712 398.626 396.991C400.542 398.029 402.732 397.277 404.728 396.524L412.544 393.572C413.02 393.45 413.46 393.164 413.815 392.747C414.029 392.384 414.148 391.947 414.154 391.495C414.16 391.044 414.053 390.602 413.848 390.23C413.427 389.499 412.854 388.926 412.192 388.575C409.758 387.091 407.017 386.749 404.347 386.687C403.353 386.687 402.376 386.391 401.697 387.351C401.341 387.87 401.408 388.42 400.869 388.861C400.38 389.18 399.839 389.354 399.288 389.369Z" fill="#3F3D56"/>
<path d="M392.495 283.054C397.101 282.474 401.734 282.311 406.359 282.567C406.664 282.563 406.967 282.622 407.257 282.743C408.275 283.262 408.433 284.933 408.528 286.297C408.942 291.839 410.871 297.001 411.84 302.429C412.409 305.84 412.667 309.321 412.61 312.806C412.554 314.363 412.576 315.922 412.676 317.476C412.8 318.861 413.09 320.22 413.247 321.601C413.422 323.455 413.487 325.323 413.442 327.189C413.489 330.115 413.358 333.041 413.049 335.942C412.411 340.887 413.525 345.8 413.823 350.802C413.971 354.3 414.285 357.785 414.762 361.236C414.99 362.694 415.276 364.137 415.433 365.605C415.897 369.969 415.218 374.462 415.951 378.769C416.29 380.782 416.903 383.044 416 384.767C415.719 385.286 415.305 385.727 414.998 386.251C414.827 386.496 414.709 386.793 414.658 387.113C414.607 387.432 414.625 387.763 414.709 388.072C414.887 388.544 415.301 388.855 415.404 389.359C415.566 390.153 414.903 390.801 414.307 391.138C409.815 393.681 404.024 391.891 400.994 387.019C401.515 386.915 402.153 386.443 402.165 385.779C402.125 385.118 402.011 384.469 401.826 383.848C401.582 382.729 401.541 381.555 401.706 380.414C401.826 379.615 402.041 378.857 402.173 378.053C402.298 377.171 402.381 376.28 402.422 375.386C402.646 372.172 403.15 368.998 403.925 365.922C404.678 362.938 403.651 359.919 403.382 356.805C403.258 355.332 403.312 353.812 402.902 352.421C402.654 351.601 402.252 350.864 402.008 350.045C401.441 348.13 401.78 346.003 402.124 344.01C399.677 338.474 398.862 331.874 397.938 325.653L396.386 315.172C396.154 313.615 395.902 312.002 395.144 310.746C394.339 315.373 394.023 320.113 394.204 324.844C394.298 326.207 394.284 327.578 394.163 328.937C393.972 330.442 393.472 331.859 393.178 333.332C392.536 336.585 392.913 339.999 392.764 343.346C392.706 344.7 392.569 346.044 392.524 347.398C392.321 353.376 393.927 359.187 395.512 364.827C396.485 368.288 396.701 372.221 397.168 375.842C397.582 379.314 398.042 382.785 398.261 386.287C398.464 389.504 398.555 392.986 400.153 395.512C398.692 396.701 397.185 397.91 395.475 398.319C393.483 398.71 391.444 398.215 389.713 396.919C387.991 395.628 386.452 393.989 385.159 392.067C385.494 391.922 385.614 391.31 385.647 390.869C386.144 384.3 384.153 377.897 383.399 371.359C383.023 368.084 382.956 364.765 383.201 361.47C383.296 360.23 383.433 358.99 383.47 357.745C383.668 351.254 381.172 345.001 381.263 338.505C381.305 335.459 380.021 332.46 379.392 329.518C378.85 326.924 378.833 324.174 378.821 321.476L378.717 300.203C378.717 297.328 378.717 294.381 379.458 291.668C380.369 288.399 379.326 284.647 379.169 281.192C383.47 282.901 387.998 283.533 392.495 283.054Z" fill="#696791"/>
<path d="M377.736 221.933C375.996 217.474 373.871 213.269 371.398 209.392C370.882 208.634 370.411 207.83 369.991 206.984C369.101 205.049 368.836 202.776 368.273 200.659C366.699 194.723 362.775 189.955 361.819 183.817C361.471 181.586 360.337 179.666 359.558 177.591C359.033 176.205 358.453 174.742 357.401 173.959C356.048 172.921 354.177 173.398 353.051 174.789C352.509 175.512 352.107 176.382 351.876 177.331C351.645 178.28 351.591 179.283 351.718 180.263C351.795 181.167 352.083 182.022 352.545 182.722C353.146 183.568 354.044 183.952 354.851 184.46C356.937 185.786 358.533 188.071 359.306 190.837C360.684 195.844 360.862 201.147 362.618 205.983C364.373 210.819 366.435 215.457 367.95 220.402C368.811 223.209 369.498 226.109 370.761 228.704C372.023 231.298 373.994 233.472 376.374 233.861C376.358 231.98 376.586 230.109 377.049 228.32C377.566 226.275 378.485 223.868 377.736 221.933Z" fill="#A0616A"/>
<path d="M403.366 225.814C403.259 222.145 403.716 218.485 404.711 215.032C405.092 213.709 405.539 212.365 405.502 210.959C405.448 209.651 404.951 208.453 404.5 207.27C402.943 203.196 401.85 198.88 400.774 194.573L398.704 186.453C398.029 185.833 397.419 185.109 396.887 184.3C395.784 182.701 395.054 180.751 394.78 178.665C394.648 177.625 394.683 176.562 394.882 175.539C395.082 174.517 395.443 173.554 395.943 172.708C396.164 172.302 396.451 171.959 396.786 171.703C397.121 171.447 397.495 171.284 397.885 171.224C398.228 171.234 398.567 171.331 398.88 171.509C399.193 171.687 399.474 171.944 399.706 172.262C400.389 173.238 400.917 174.369 401.263 175.593C401.937 177.585 402.625 179.661 402.563 181.819C402.505 183.615 401.971 185.617 402.811 187.075C405.56 191.859 407.642 197.354 409.82 202.579C410.375 203.824 410.849 205.124 411.235 206.465C411.767 208.639 412.019 210.906 411.981 213.179C411.981 217.429 411.533 221.663 411.07 225.876C410.776 228.517 410.391 231.391 408.797 233.14C407.141 230.483 405.477 227.889 403.366 225.814Z" fill="#A0616A"/>
<path d="M392.834 227.837C397.578 227.837 401.424 223.017 401.424 217.071C401.424 211.125 397.578 206.304 392.834 206.304C388.09 206.304 384.244 211.125 384.244 217.071C384.244 223.017 388.09 227.837 392.834 227.837Z" fill="#A0616A"/>
<path d="M396.994 228.408C397.201 230.354 398.034 232.097 398.845 233.778C399.333 234.816 399.959 235.921 400.915 236.035C398.426 237.672 395.812 238.99 393.111 239.968C392.194 240.355 391.231 240.549 390.263 240.544C389.443 240.467 388.64 240.209 387.891 239.781C386.254 238.888 384.8 237.54 383.639 235.839C382.478 234.139 381.64 232.13 381.189 229.965C382.258 230 383.328 229.898 384.381 229.658C384.982 229.601 385.542 229.255 385.945 228.693C386.185 228.167 386.297 227.565 386.268 226.96C386.31 225.165 386.314 223.365 386.268 221.569C388.379 221.401 390.496 221.728 392.511 222.534C393.339 222.872 394.167 223.276 394.995 223.541C395.517 223.707 396.953 223.541 397.338 223.92C397.971 224.454 396.85 227.085 396.994 228.408Z" fill="#A0616A"/>
<path d="M393.219 234.951C393.313 233.532 393.761 232.187 394.5 231.106C395.239 230.024 396.23 229.262 397.334 228.927C398.22 228.678 399.18 228.709 399.971 228.159C401.329 227.209 401.739 224.895 403.043 223.832C404.347 222.768 406.197 223.359 407.332 224.703C408.466 226.047 409.041 227.962 409.505 229.835C410.197 232.367 410.573 235.019 410.619 237.696C410.636 238.185 410.574 238.674 410.436 239.133C410.191 239.668 409.881 240.153 409.517 240.57C409.032 241.253 408.669 242.06 408.455 242.935C408.241 243.81 408.179 244.732 408.276 245.639C408.393 247.348 408.268 249.07 407.907 250.724C407.079 255.301 406.251 259.872 405.585 264.49C405.428 265.339 405.377 266.214 405.431 267.084C405.56 268.334 406.11 269.517 405.99 270.768C405.873 271.35 405.786 271.941 405.73 272.537C405.757 272.988 405.84 273.431 405.978 273.85C406.918 277.269 409.455 285.104 409.43 288.726C405.022 287.309 398.522 286.993 393.968 286.967C392.716 286.95 391.464 287.019 390.218 287.174C387.225 287.579 384.161 288.674 381.259 287.662C378.564 286.723 376.18 284.03 373.394 284.367C372.789 282.385 373.501 275.77 374.068 273.767C376.279 265.881 376.709 257.382 375.31 249.209C374.801 246.272 375.501 243.154 374.934 240.238C374.83 239.548 374.619 238.89 374.313 238.303C374.158 238.011 373.948 237.772 373.7 237.61C373.452 237.448 373.176 237.366 372.897 237.374C372.845 232.683 373.192 227.999 373.932 223.401C374.205 221.767 374.76 219.836 376.097 219.556C377.281 219.302 378.274 220.558 379.227 221.476C380.203 222.423 381.334 223.089 382.538 223.427C383.023 223.499 383.488 223.712 383.896 224.05C384.463 224.641 384.546 225.705 385.01 226.426C385.838 227.718 387.688 227.609 388.276 229.098C388.405 229.542 388.508 229.996 388.587 230.457C388.865 231.342 389.339 232.109 389.953 232.668C390.875 233.754 391.997 234.539 393.219 234.951Z" fill="#F86D70"/>
<path d="M385.854 205.625C385.705 204.914 385.73 204.068 386.186 203.591C386.413 203.368 386.711 203.285 386.956 203.072C387.3 202.709 387.581 202.263 387.783 201.759C388.401 200.676 389.305 199.901 390.335 199.574C391.365 199.246 392.454 199.386 393.409 199.969C394.904 200.95 395.806 202.911 397.135 204.234C397.81 204.919 398.592 205.428 399.271 206.112C400.631 207.585 401.598 209.544 402.041 211.727C402.481 213.894 402.738 216.113 402.807 218.347C402.877 219.018 402.856 219.699 402.745 220.36C402.607 220.916 402.402 221.441 402.136 221.917C400.77 224.511 398.969 226.867 396.713 228.206C394.457 229.544 391.712 229.762 389.485 228.361C389.261 228.248 389.068 228.055 388.93 227.806C388.804 227.427 388.773 227.009 388.843 226.608C388.964 225.022 388.714 223.426 388.123 222.016C387.709 220.978 387.088 220.085 386.757 219.011C386.449 217.809 386.317 216.547 386.368 215.286C386.33 212.022 386.508 208.769 385.854 205.625Z" fill="#2D293D"/>
</g>
<defs>
<linearGradient id="paint0_linear" x1="416.472" y1="286.287" x2="351.664" y2="286.287" gradientUnits="userSpaceOnUse">
<stop stop-color="#808080" stop-opacity="0.25"/>
<stop offset="0.54" stop-color="#808080" stop-opacity="0.12"/>
<stop offset="1" stop-color="#808080" stop-opacity="0.1"/>
</linearGradient>
<clipPath id="clip0">
<rect width="461" height="407" fill="white"/>
</clipPath>
</defs>
</svg>
